<?xml version="1.0" encoding="utf-8"?>
<!-- Generator: Adobe Illustrator 16.0.0, SVG Export Plug-In . SVG Version: 6.00 Build 0)  -->
<!DOCTYPE svg PUBLIC "-//W3C//DTD SVG 1.1//EN" "http://www.w3.org/Graphics/SVG/1.1/DTD/svg11.dtd">
<svg version="1.1" id="圖層_1" xmlns="http://www.w3.org/2000/svg" xmlns:xlink="http://www.w3.org/1999/xlink" x="0px" y="0px"
	 width="2px" height="40px" viewBox="0 0 2 40" enable-background="new 0 0 2 40" xml:space="preserve">
<rect y="39" fill="#E8E8E8" width="2" height="1"/>
<rect y="37" fill="#E4E4E4" width="1" height="1"/>
<rect y="35" fill="#E4E4E4" width="1" height="1"/>
<rect y="33" fill="#E4E4E4" width="1" height="1"/>
<rect y="31" fill="#E4E4E4" width="1" height="1"/>
<rect y="29" fill="#E4E4E4" width="1" height="1"/>
<rect y="27" fill="#E4E4E4" width="1" height="1"/>
<rect y="25" fill="#E4E4E4" width="1" height="1"/>
<rect y="23" fill="#E4E4E4" width="1" height="1"/>
<rect y="21" fill="#E4E4E4" width="1" height="1"/>
<rect y="19" fill="#E4E4E4" width="1" height="1"/>
<rect y="17" fill="#E4E4E4" width="1" height="1"/>
<rect y="15" fill="#E4E4E4" width="1" height="1"/>
<rect y="13" fill="#E4E4E4" width="1" height="1"/>
<rect y="11" fill="#E4E4E4" width="1" height="1"/>
<rect y="9" fill="#E4E4E4" width="1" height="1"/>
<rect y="7" fill="#E4E4E4" width="1" height="1"/>
<rect y="5" fill="#E4E4E4" width="1" height="1"/>
<rect y="3" fill="#E4E4E4" width="1" height="1"/>
<rect y="1" fill="#E4E4E4" width="1" height="1"/>
</svg>
