<?xml version="1.0" encoding="utf-8"?>
<!-- Generator: Adobe Illustrator 16.0.0, SVG Export Plug-In . SVG Version: 6.00 Build 0)  -->
<!DOCTYPE svg PUBLIC "-//W3C//DTD SVG 1.1//EN" "http://www.w3.org/Graphics/SVG/1.1/DTD/svg11.dtd">
<svg version="1.1" id="logo-kkstream" xmlns="http://www.w3.org/2000/svg" xmlns:xlink="http://www.w3.org/1999/xlink" x="0px"
	 y="0px" width="295px" height="50px" viewBox="0 0 295 50" enable-background="new 0 0 295 50" xml:space="preserve">
<g id="g">
	<polygon fill="#FFFFFF" points="49.723,22.275 52.526,6.364 43.62,6.364 37.009,43.852 45.918,43.852 47.255,36.27 52.227,31.002 
		60.428,43.852 71.327,43.852 58.813,24.487 75.924,6.364 64.694,6.364 	"/>
	<polygon fill="#FFFFFF" points="12.711,22.275 15.515,6.364 6.611,6.364 0,43.852 8.907,43.852 10.247,36.27 15.215,31.002 
		23.419,43.852 34.314,43.852 21.805,24.487 38.913,6.364 27.686,6.364 	"/>
	<g>
		<path fill="#FFFFFF" d="M87.07,46.445c0.007-0.006,0.021-0.018,0.035-0.025c2.961-1.822,18.969-15.242,17.228-18.408
			c-1.086-1.977-5.007-1.178-13.187,1.396c-18.815,5.91,0.43-18.035,15.866-27.53c0.317-0.196,0.712-0.353,1.164-0.48
			C105.591,0.495,102.817,0,99.926,0C86.115,0,74.919,11.191,74.919,25.001C74.919,34.105,79.792,42.074,87.07,46.445z"/>
		<path fill="#FFFFFF" d="M114.886,4.972c-9.46,6.202-27.71,21.89-15.039,17.979c8.731-2.689,14.331-2.419,15.24,0.226
			c1.177,3.421-4.831,12.255-21.121,22.458c-1.276,0.797-2.617,1.572-3.978,2.307C93.036,49.266,96.393,50,99.926,50
			c13.8,0,24.996-11.191,24.996-24.999C124.922,16.804,120.976,9.531,114.886,4.972z"/>
	</g>
	<path fill="#FFFFFF" d="M140.594,36.947h5.24l-1.107,6.904h-8.329c-4.661,0-7.898-3.117-7.292-6.904l5.385-30.627h9.565l-0.663,4
		h7.356l-1.166,6.805h-7.177l-3.534,18.417C138.753,36.326,139.516,36.947,140.594,36.947z"/>
	<path fill="#FFFFFF" d="M150.678,43.852l4.225-26.726c0.614-3.833,5.41-6.89,10.649-6.89h7.558l-1.339,6.89h-5.24
		c-1.078,0-2.129,0.811-2.257,1.59l-4.051,25.135H150.678z"/>
	<path fill="#FFFFFF" d="M184.697,30.467l-0.89,5.564c-0.119,0.781,0.644,1.408,1.718,1.408h17.232l-1.112,6.412h-19.163
		c-5.239,0-9.048-3.121-8.44-6.918l3.271-19.639c0.613-3.849,5.378-6.974,10.619-6.974h9.619c5.235,0,9.087,3.125,8.469,6.974
		l-2.161,13.172H184.697z M185.801,23.55h9.615l0.754-4.775c0.074-0.995-0.617-1.649-1.692-1.649h-5.74
		c-1.074,0-1.975,0.795-2.098,1.577L185.801,23.55z"/>
	<path fill="#FFFFFF" d="M240.45,17.279l-4.38,26.573h-19.167c-5.237,0-9.053-3.111-8.44-6.898l1.205-7.955
		c0.614-3.836,5.405-6.46,10.651-6.46h9.615l0.743-3.857c0.125-0.779-0.603-1.554-1.677-1.554h-17.229l1.044-6.805h19.163
		C237.217,10.321,241.063,13.437,240.45,17.279z M228.829,28.998h-7.682c-1.072,0-2.038,0.629-2.157,1.404l-0.762,5.148
		c-0.119,0.775,0.639,1.402,1.713,1.402h7.684L228.829,28.998z"/>
	<path fill="#FFFFFF" d="M243.04,43.852l4.962-33.531h38.25c5.313,0,9.161,3.164,8.548,7.06l-3.886,26.471h-9.61l3.651-25.047
		c0.128-0.79-0.62-1.678-1.622-1.678h-7.686l-3.896,26.726h-9.547l3.906-26.726h-9.619l-3.902,26.726H243.04z"/>
</g>
</svg>
