<?xml version="1.0" encoding="utf-8"?>
<!-- Generator: Adobe Illustrator 16.0.0, SVG Export Plug-In . SVG Version: 6.00 Build 0)  -->
<!DOCTYPE svg PUBLIC "-//W3C//DTD SVG 1.1//EN" "http://www.w3.org/Graphics/SVG/1.1/DTD/svg11.dtd">
<svg version="1.1" id="logo-kktown" xmlns="http://www.w3.org/2000/svg" xmlns:xlink="http://www.w3.org/1999/xlink" x="0px"
	 y="0px" width="196px" height="46px" viewBox="0 0 196 46" enable-background="new 0 0 196 46" xml:space="preserve">
<g id="g">
	<path fill="#303030" d="M77.256,39.57c-3.551,0-6.43-2.879-6.43-6.43V20.704v-2.333h5.972c2.279,0,4.132-1.851,4.132-4.133
		c0-2.283-1.85-4.134-4.132-4.134h-5.972V4.133c0-2.282-1.85-4.133-4.133-4.133c-2.282,0-4.134,1.851-4.134,4.133v29.393h0.006
		C62.769,40.449,68.447,46,75.419,46c2.322,0,4.501-0.615,6.381-1.691l-2.838-4.967C78.419,39.491,77.847,39.57,77.256,39.57z"/>
	<path fill="#303030" d="M29.251,13.446c0-2.345-1.901-4.246-4.246-4.246c-1.371,0-2.59,0.649-3.366,1.657l-0.011-0.008
		L8.492,28.773V13.449c0-2.348-1.901-4.249-4.246-4.249S0,11.102,0,13.449v28.303c0,1.174,0.476,2.236,1.244,3.004
		C2.012,45.524,3.073,46,4.246,46c1.546,0,2.899-0.826,3.642-2.061l6.773-9.233l6.815,9.411C22.239,45.252,23.534,46,25.005,46
		c2.345,0,4.246-1.9,4.246-4.246c0-1.017-0.357-1.949-0.953-2.68l-8.368-11.553l8.301-11.316
		C28.868,15.463,29.251,14.499,29.251,13.446z"/>
	<path fill="#303030" d="M60.541,13.446c0-2.345-1.902-4.246-4.248-4.246c-1.371,0-2.591,0.649-3.367,1.657l-0.011-0.008
		l-13.14,17.924V13.449c0-2.348-1.902-4.249-4.248-4.249c-2.346,0-4.248,1.902-4.248,4.249v28.303c0,1.174,0.475,2.236,1.244,3.004
		C33.292,45.524,34.354,46,35.528,46c1.546,0,2.9-0.826,3.642-2.061l6.775-9.233l6.818,9.411C53.526,45.252,54.823,46,56.293,46
		c2.345,0,4.248-1.9,4.248-4.246c0-1.017-0.357-1.949-0.953-2.68l-8.371-11.553l8.305-11.316
		C60.157,15.463,60.541,14.499,60.541,13.446z"/>
	<path fill="#303030" d="M195.816,12.975c-0.234-2.123-2.034-3.774-4.221-3.774c-2.186,0-3.984,1.651-4.22,3.774h-0.026v17.895
		l-16.113-20.183l-0.002,0.002c-0.779-0.911-1.936-1.488-3.228-1.488c-2.187,0-3.985,1.651-4.22,3.774h-0.027v29.251h0.027
		c0.234,2.124,2.033,3.774,4.22,3.774c2.186,0,3.985-1.65,4.22-3.774h0.026v-17.88l16.042,20.094l0.007-0.006
		C189.08,45.39,190.268,46,191.596,46c2.187,0,3.986-1.65,4.221-3.774h0.025V12.975H195.816z"/>
	<path fill="#303030" d="M98.439,9.2C88.277,9.2,80.04,17.438,80.04,27.6c0,10.162,8.237,18.4,18.399,18.4s18.4-8.238,18.4-18.4
		C116.84,17.438,108.602,9.2,98.439,9.2z M98.439,37.721c-5.588,0-10.119-4.531-10.119-10.121c0-5.589,4.531-10.12,10.119-10.12
		c5.59,0,10.12,4.531,10.12,10.12C108.56,33.189,104.029,37.721,98.439,37.721z"/>
	<path fill="#303030" d="M157.695,9.2c-1.85,0-3.422,1.196-3.994,2.86V12.06l-6.543,19.711l-4.854-10.541l-0.006,0.003
		c-0.609-1.258-1.893-2.125-3.379-2.125c-1.485,0-2.769,0.867-3.379,2.125l-0.004-0.003l-4.855,10.541l-6.543-19.711v0.001
		c-0.572-1.665-2.145-2.86-3.994-2.86c-2.333,0-4.225,1.901-4.225,4.246c0,0.556,0.105,1.087,0.3,1.573l9.269,27.968
		c0.525,1.744,2.137,3.014,4.044,3.014c0.081,0,0.161-0.002,0.242-0.007c0.075,0.005,0.151,0.007,0.228,0.007
		c1.49,0,2.778-0.873,3.385-2.139l0.003,0.001l5.53-11.994l5.531,11.994l0.002-0.001c0.607,1.266,1.895,2.139,3.386,2.139
		c0.076,0,0.151-0.002,0.228-0.007c0.08,0.005,0.16,0.007,0.241,0.007c1.907,0,3.519-1.27,4.044-3.014l9.27-27.968
		c0.193-0.486,0.299-1.017,0.299-1.573C161.92,11.101,160.029,9.2,157.695,9.2z"/>
</g>
</svg>
