<?xml version="1.0" encoding="utf-8"?>
<!-- Generator: Adobe Illustrator 16.0.0, SVG Export Plug-In . SVG Version: 6.00 Build 0)  -->
<!DOCTYPE svg PUBLIC "-//W3C//DTD SVG 1.1//EN" "http://www.w3.org/Graphics/SVG/1.1/DTD/svg11.dtd">
<svg version="1.1" id="logo-kkbox" xmlns="http://www.w3.org/2000/svg" xmlns:xlink="http://www.w3.org/1999/xlink" x="0px" y="0px"
	 width="181px" height="46px" viewBox="0 0 181 46" enable-background="new 0 0 181 46" xml:space="preserve">
<g id="g">
	<path fill="#FFFFFF" d="M129.001,11.605c-9.465,0-17.141,7.676-17.141,17.137c0,9.479,7.676,17.158,17.141,17.158
		c9.478,0,17.157-7.68,17.157-17.158C146.158,19.282,138.479,11.605,129.001,11.605z M129.001,36.945
		c-4.523,0-8.201-3.665-8.201-8.203c0-4.518,3.678-8.207,8.201-8.207c4.535,0,8.206,3.689,8.206,8.207
		C137.207,33.28,133.536,36.945,129.001,36.945z"/>
	<path fill="#FFFFFF" d="M33.424,12.017c-1.96,0-4.018,0-6.197,0c-2.66,0-3.926,0.663-5.467,1.884L9.399,25.988V12.754
		c0-0.414-0.343-0.753-0.756-0.753H0.751C0.339,12.001,0,12.34,0,12.754v32.482C0,45.663,0.339,46,0.751,46h7.892
		c0.413,0,0.756-0.337,0.756-0.764V31.752l12.746,12.609c1.292,1.037,2.852,1.563,4.906,1.563c0.713,0,5.211,0,6.046,0
		c1.971,0,1.24-1.132,1.24-1.132l-15.801-15.8L34.385,13.12C34.385,13.12,35.396,12.017,33.424,12.017z"/>
	<path fill="#FFFFFF" d="M70.028,12.017c-1.971,0-4.039,0-6.215,0c-2.666,0-3.923,0.663-5.449,1.884L46.239,25.734v-12.98
		c0-0.414-0.339-0.753-0.751-0.753h-7.893c-0.414,0-0.753,0.339-0.753,0.753v32.482c0,0.427,0.339,0.764,0.753,0.764h7.893
		c0.412,0,0.751-0.337,0.751-0.764v-13.24l12.498,12.365c1.305,1.037,2.843,1.563,4.899,1.563c0.729,0,5.23,0,6.05,0
		c1.962,0,1.24-1.132,1.24-1.132l-15.801-15.8L70.987,13.12C70.987,13.12,71.986,12.017,70.028,12.017z"/>
	<path fill="#FFFFFF" d="M180.69,44.689l-12.52-15.781L180.33,13.12c0,0,1.003-1.103-0.961-1.103h-5.095
		c-2.477,0-3.952,0.229-5.173,1.725l-6.1,8.636l-6.57-8.741c-1.225-1.499-2.639-1.62-5.151-1.62h-5.048
		c-1.965,0-1.001,1.103-1.001,1.103l12.503,15.789l-12.349,15.884c0,0-0.727,1.132,1.241,1.132h4.579
		c1.547,0,3.956,0.104,5.427-1.373c0.023-0.022,3.306-4.841,6.369-8.83c3.095,3.936,6.414,8.65,6.44,8.677
		c1.473,1.472,4.059,1.526,5.615,1.526h4.241C181.259,45.924,180.69,44.689,180.69,44.689z"/>
	<path fill="#FFFFFF" d="M91.377,12.044c-3.158,0.247-5.881,1.735-8.119,3.875V0.507c0-0.386-0.313-0.606-0.687-0.463l-8.038,3.001
		c-0.375,0.153-0.688,0.593-0.688,0.985v41.108c0,0.39,0.335,0.718,0.728,0.718h7.955c0.361,0,0.649-0.27,0.699-0.615V31.544v-0.831
		h0.012c-0.002-0.075-0.012,0.91-0.012,0.831c0-4.66,2.981-9.611,8.406-11.202c4.615-1.371,8.566,1.989,8.566,6.626
		c0,4.656-3.951,9.62-8.566,10.191c-1.8,0.217-3.302,0.085-4.516-0.342V45.8h4.362c0.001,0,0.003,0,0.01,0
		c10.23,0,17.311-7.4,17.541-16.955C109.268,18.49,101.939,11.192,91.377,12.044z"/>
</g>
</svg>
