<?xml version="1.0" encoding="utf-8"?>
<!-- Generator: Adobe Illustrator 16.0.0, SVG Export Plug-In . SVG Version: 6.00 Build 0)  -->
<!DOCTYPE svg PUBLIC "-//W3C//DTD SVG 1.1//EN" "http://www.w3.org/Graphics/SVG/1.1/DTD/svg11.dtd">
<svg version="1.1" id="logo-kktv" xmlns="http://www.w3.org/2000/svg" xmlns:xlink="http://www.w3.org/1999/xlink" x="0px" y="0px"
	 width="212px" height="46px" viewBox="0 0 212 46" enable-background="new 0 0 212 46" xml:space="preserve">
<path fill="#FFFFFF" d="M210.617,0.001H199.42c-0.775,0-1.674,0.757-1.992,1.536L185.48,30.864L173.534,1.506
	c-0.318-0.779-1.218-1.505-1.993-1.505h-11.197c-0.775,0-1.155,0.757-0.838,1.536l18.914,42.668
	c0.316,0.779,1.217,1.795,1.992,1.795h0.267h9.604h0.266c0.776,0,1.677-0.955,1.993-1.732l18.914-42.573
	C211.772,0.917,211.394,0.001,210.617,0.001"/>
<path fill="#FFFFFF" d="M94.258,0c-3.593,0-5.654,0.836-7.73,2.481L73.29,15.143l-7.116,6.806V1.26c0-0.779,0.027-1.26-0.749-1.26
	h-9.871c-0.774,0-1.485,0.481-1.485,1.26v43.081c0,0.779,0.711,1.659,1.485,1.659h9.871c0.776,0,0.749-0.88,0.749-1.659V23.258
	l20.871,20.467C88.797,45.115,91.924,46,94.018,46h8.807c2.652,0,1.674-1.705,1.674-1.705L82.85,22.5l0.103-0.17l20.989-20.861
	c0,0,1.359-1.468-1.296-1.468H94.258z"/>
<path fill="#FFFFFF" d="M110.028,0c-0.867,0-1.891,0.717-1.891,1.583V8.68c0,0.868,1.023,1.812,1.891,1.812h15.057v34.23
	c0,0.778,0.556,1.277,1.331,1.277h11.196c0.775,0,2.805-0.499,2.805-1.277v-34.23h13.768c0.867,0,2.373-0.944,2.373-1.812V1.583
	c0-0.867-1.506-1.583-2.373-1.583H110.028z"/>
<path fill="#FFFFFF" d="M28.539,22.499l0.102-0.169l20.99-20.861c0,0,1.358-1.468-1.297-1.468h-8.388
	c-3.592,0-5.533,0.836-7.609,2.48L12.105,21.948V1.259C12.105,0.481,11.89,0,11.114,0h-9.87C0.468,0,0,0.481,0,1.259v43.082
	c0,0.778,0.468,1.658,1.244,1.658h9.87c0.776,0,0.991-0.88,0.991-1.658V23.258l20.75,20.467c1.752,1.391,4.759,2.274,6.853,2.274
	h8.806c2.653,0,1.675-1.703,1.675-1.703L28.539,22.499z"/>
</svg>
