<?xml version="1.0" encoding="utf-8"?>
<!-- Generator: Adobe Illustrator 16.0.0, SVG Export Plug-In . SVG Version: 6.00 Build 0)  -->
<!DOCTYPE svg PUBLIC "-//W3C//DTD SVG 1.1//EN" "http://www.w3.org/Graphics/SVG/1.1/DTD/svg11.dtd">
<svg version="1.1" id="bu-kktix-mask_1_" xmlns="http://www.w3.org/2000/svg" xmlns:xlink="http://www.w3.org/1999/xlink" x="0px"
	 y="0px" width="191px" height="46px" viewBox="0 0 191 46" enable-background="new 0 0 191 46" xml:space="preserve">
<path id="k2_1_" fill="#64C025" d="M22.149,23.484L41.094,4.526c0,0,1.202-1.33-1.147-1.33c-2.35,0-4.813,0-7.421,0
	c-3.175,0-4.683,0.802-6.514,2.256L11.238,19.894V4.09c0-0.501-0.408-0.907-0.907-0.907H0.907C0.408,3.183,0,3.589,0,4.09v38.821
	c0,0.501,0.408,0.911,0.907,0.911h9.424c0.499,0,0.907-0.41,0.907-0.911V26.797l15.227,15.074c1.551,1.223,3.403,1.855,5.854,1.855
	c0.865,0,6.242,0,7.232,0c2.346,0,1.481-1.351,1.481-1.351L22.149,23.484z"/>
<path id="k1_1_" fill="#64C025" d="M65.875,23.484L84.821,4.526c0,0,1.205-1.33-1.148-1.33c-2.349,0-4.811,0-7.417,0
	c-3.18,0-4.685,0.802-6.519,2.256L55.253,19.607V4.09c0-0.501-0.407-0.907-0.905-0.907h-9.422c-0.5,0-0.91,0.406-0.91,0.907v38.821
	c0,0.501,0.41,0.911,0.91,0.911h9.422c0.499,0,0.905-0.41,0.905-0.911V27.086L70.19,41.871c1.551,1.223,3.402,1.855,5.854,1.855
	c0.867,0,6.244,0,7.233,0c2.347,0,1.481-1.351,1.481-1.351L65.875,23.484z"/>
<path fill="#64C025" d="M190.389,2.291V0h-87.67c-1.439,0-3.088,0.845-4.094,1.875L79.339,21.557
	c-1.005,1.033-0.989,2.707,0.037,3.72l19.212,18.881c1.025,1.013,3.045,1.842,4.484,1.842h87.316v-2.469
	c-1.312-0.146-2.33-1.256-2.33-2.604c0-1.35,1.02-2.46,2.33-2.604v-1.998c-1.312-0.145-2.33-1.254-2.33-2.604
	c0-1.351,1.02-2.46,2.33-2.604v-1.998c-1.312-0.146-2.33-1.255-2.33-2.604c0-1.349,1.02-2.459,2.33-2.604v-1.999
	c-1.312-0.145-2.33-1.255-2.33-2.604s1.02-2.459,2.33-2.604v-1.999c-1.312-0.145-2.33-1.255-2.33-2.604s1.02-2.459,2.33-2.604V7.499
	c-1.312-0.145-2.33-1.255-2.33-2.604S189.078,2.436,190.389,2.291z M128.292,12.921L128.292,12.921
	c-0.001,0.441-0.36,0.804-0.804,0.804h-9.33v24.982c0,0.439-0.373,0.804-0.83,0.804h-7.455c-0.457,0-0.83-0.364-0.83-0.804V13.725
	H97.57c-0.443,0-0.803-0.363-0.803-0.804l5.225-5.628c0.336-0.386,0.871-0.804,1.313-0.804h24.184c0.443,0,0.804,0.363,0.804,0.804
	V12.921z M143.486,38.676c0,0.439-0.404,0.803-0.896,0.803h-7.549c-0.492,0-0.896-0.362-0.896-0.803V7.325
	c0-0.443,0.404-0.804,0.896-0.804h7.549c0.492,0,0.896,0.361,0.896,0.804V38.676z M180.512,39.48h-5.805
	c-1.512,0-2.342-0.045-3.773-1.48c-0.026-0.021-5.385-8.43-5.385-8.43s-5.297,8.559-5.322,8.582
	c-1.43,1.438-2.276,1.328-3.785,1.328h-5.942c-1.91,0-1.205-1.098-1.205-1.098l10.666-15.436L149.143,7.599
	c0,0-0.932-1.082,0.98-1.082h6.025c2.44,0,2.69,0.126,3.881,1.583l5.52,8.495l5.057-8.394c1.187-1.456,1.396-1.685,3.81-1.685h6.168
	c1.91,0,0.935,1.082,0.935,1.082l-10.228,15.35l10.58,15.333C181.869,38.281,182.422,39.48,180.512,39.48z"/>
</svg>
