<?xml version="1.0" encoding="UTF-8" standalone="no"?>
<svg width="268px" height="335px" viewBox="0 0 268 335" version="1.1" xmlns="http://www.w3.org/2000/svg" xmlns:xlink="http://www.w3.org/1999/xlink">
    <!-- Generator: Sketch 3.8.3 (29802) - http://www.bohemiancoding.com/sketch -->
    <title>up_logomark</title>
    <desc>Created with Sketch.</desc>
    <defs>
        <linearGradient x1="20.1355189%" y1="50%" x2="27.1611846%" y2="50%" id="linearGradient-1">
            <stop stop-color="#D34A00" offset="0%"></stop>
            <stop stop-color="#C24400" offset="100%"></stop>
        </linearGradient>
        <linearGradient x1="50%" y1="4.40759857%" x2="50%" y2="111.920883%" id="linearGradient-2">
            <stop stop-color="#D34900" offset="0%"></stop>
            <stop stop-color="#B53D00" offset="100%"></stop>
        </linearGradient>
        <linearGradient x1="83.1007919%" y1="50%" x2="74.8638331%" y2="50%" id="linearGradient-3">
            <stop stop-color="#D34A00" offset="0%"></stop>
            <stop stop-color="#C24400" offset="100%"></stop>
        </linearGradient>
    </defs>
    <g id="Page-1" stroke="none" stroke-width="1" fill="none" fill-rule="evenodd">
        <g id="up_logomark">
            <g id="Group" transform="translate(32.666667, 285.000000)" fill="#000000">
                <path d="M7.57244767,48.7874286 L7.57244767,40.7028571 C22.2242351,40.547102 35.5656522,37.5740408 35.5656522,28.861551 C35.5656522,25.048 32.4272464,22.7528163 24.5728824,22.7528163 C15.2057971,22.7528163 5.84755233,24.9941224 0.406666667,26.3498776 L0.406666667,18.0037551 C5.21397746,16.9066122 14.7401932,14.8739592 25.7270692,14.8739592 C37.1323994,14.8739592 44.6203704,18.9931429 44.6203704,28.6460408 C44.6193881,42.5807347 31.2730596,48.5278367 7.57244767,48.7874286 M6.05776167,11.6354286 L6.05776167,3.75755102 C15.3708213,3.75755102 27.7201288,3.75755102 37.8150886,4.38155102 L37.8150886,12.5777959 C28.1847504,11.6354286 17.0416908,11.6354286 6.05776167,11.6354286" id="Shape"></path>
                <path d="M68.0135266,15.6527347 C65.9723349,27.1355102 63.6187762,37.0999184 60.5825282,48.0057143 L51.6898873,48.0057143 C54.9825121,37.986449 57.7024638,27.0816327 59.6984702,15.7604898 L52.2615781,15.7604898 L52.2615781,7.92963265 L60.8919485,7.92963265 C61.1051047,6.10759184 61.3634461,4.22383673 61.5736554,2.40179592 L70.1598229,2.40179592 C69.8946055,4.27869388 69.5822383,6.10759184 69.3150564,7.92963265 L93.2347182,7.92963265 L93.2347182,15.6517551 L68.0135266,15.6517551 M82.8755233,48.690449 C72.1980676,48.690449 67.38781,44.5105306 67.38781,38.6653061 C67.38781,35.0682449 69.2128986,31.8297143 70.8385829,29.6422857 L79.7852496,29.6422857 C78.4238003,31.2076735 75.7028663,34.3364898 75.7028663,36.9451429 C75.7028663,39.0884898 77.7951369,40.9134694 83.8136071,40.9134694 C88.41562,40.9134694 93.9596457,40.0749388 97.9388889,39.1874286 L97.9388889,47.437551 C94.2808535,48.0057143 88.8939936,48.690449 82.8755233,48.690449 M70.47219,19.2595918 L96.7847021,19.2595918 L96.7847021,26.4605714 L70.47219,26.4605714 L70.47219,19.2595918" id="Shape"></path>
                <path d="M103.699018,49.3154286 L103.699018,39.7085714 C111.550435,32.5056327 113.745845,20.7191837 113.745845,7.5162449 L113.745845,3.544 L122.69153,3.544 L122.69153,7.3604898 C122.69153,30.5768163 115.630853,43.5750204 103.699018,49.3154286 M131.746248,7.4084898 L131.746248,3.54497959 L140.85401,3.54497959 L140.85401,7.56522449 C140.85401,20.7201633 143.051385,32.4057143 150.846812,39.6125714 L150.846812,49.3154286 C138.812818,43.5201633 131.746248,30.3191837 131.746248,7.4084898 M147.756538,11.9479184 C144.672158,11.9479184 142.26752,9.496 142.26752,6.47395918 C142.26752,3.44604082 144.672158,0.994122449 147.756538,0.994122449 C150.792786,0.994122449 153.252432,3.44604082 153.252432,6.47395918 C153.252432,9.496 150.792786,11.9479184 147.756538,11.9479184 M147.756538,4.12293878 C146.452061,4.12293878 145.405926,5.16620408 145.405926,6.47297959 C145.405926,7.72 146.451079,8.81714286 147.756538,8.81714286 C149.013865,8.81714286 150.168052,7.72 150.168052,6.47297959 C150.168052,5.16620408 149.013865,4.12293878 147.756538,4.12293878" id="Shape"></path>
                <path d="M184.343768,33.7124898 C176.648535,41.9577143 166.497585,46.9634286 157.340709,48.8462041 L157.340709,40.4393469 C169.370773,37.100898 182.195507,27.3990204 186.120725,12.6316735 L160.063607,12.6316735 L160.063607,4.48930612 L196.795233,4.48930612 C196.208808,12.8354286 193.756039,20.0452245 190.149082,26.0462041 C192.920113,33.0287347 198.415024,37.5191837 203.178132,40.0729796 L203.178132,49.3154286 C194.857182,46.5970612 188.315153,40.6489796 184.343768,33.7124898" id="Shape"></path>
            </g>
            <g id="Group">
                <ellipse id="Oval-90" fill="url(#linearGradient-1)" cx="48" cy="140.666667" rx="48" ry="54"></ellipse>
                <path d="M133.333333,202 C191.875517,202 239.333333,156.78076 239.333333,101 C239.333333,45.2192403 191.875517,0 133.333333,0 C74.7911499,0 28.6666667,45.2192403 28.6666667,101 C28.6666667,156.78076 74.7911499,202 133.333333,202 L133.333333,202 Z M133.333333,187.333333 C182.670771,187.333333 224.666667,148.829822 224.666667,101.333333 C224.666667,53.8368449 182.670771,14.6666667 133.333333,14.6666667 C83.9958957,14.6666667 44,53.8368449 44,101.333333 C44,148.829822 83.9958957,187.333333 133.333333,187.333333 L133.333333,187.333333 Z" id="Oval-92" fill="url(#linearGradient-2)"></path>
                <ellipse id="Oval-90" fill="url(#linearGradient-3)" cx="220" cy="140.666667" rx="48" ry="54"></ellipse>
                <path d="M134,250.666667 C192.542183,250.666667 238.666667,201.199038 238.666667,141 C238.666667,80.8009623 192.542183,33.3333333 134,33.3333333 C75.4578165,33.3333333 29.3333333,82.8009623 29.3333333,143 C29.3333333,203.199038 75.4578165,250.666667 134,250.666667 L134,250.666667 Z" id="face" fill="#ECECEC"></path>
                <path d="M26.7236734,188.886078 C26.7236734,187.940208 26.6655894,98.5367539 26.7236734,91.9715004 C26.7340865,90.7945042 26.7236734,89.5176246 28.7346663,88.188958 C30.8030666,86.822362 41.264693,81.8645901 41.264693,81.8645901 C44.2481207,80.4322393 46.6666667,81.9523634 46.6666667,85.2612415 L46.6666668,196.18259 C46.6666668,199.49086 44.3119817,200.887166 41.4031209,199.294674 C41.4031209,199.294674 30.114051,193.153611 28.7346663,192.207744 C28.0318024,191.725779 26.7236734,189.831949 26.7236734,188.886078 L26.7236734,188.886078 Z" id="Rectangle-327" fill="#FF813D"></path>
                <path d="M221.39038,188.886078 C221.39038,187.940208 221.332206,98.5367539 221.39038,91.9715004 C221.40081,90.7945042 221.39038,89.5176246 223.404514,88.188958 C225.476146,86.822362 235.954113,81.8645901 235.954113,81.8645901 C238.942201,80.4322393 241.364525,81.9523634 241.364525,85.2612415 L241.364525,196.18259 C241.364525,199.49086 239.006162,200.887166 236.092757,199.294674 C236.092757,199.294674 224.786054,193.153611 223.404514,192.207744 C222.700553,191.725779 221.39038,189.831949 221.39038,188.886078 L221.39038,188.886078 Z" id="Rectangle-327" fill="#FF813D" transform="translate(231.364525, 140.639271) scale(-1, 1) translate(-231.364525, -140.639271) "></path>
                <path d="M101.918189,186.498884 C101.918189,186.498884 116.933711,200.464795 137.227831,200.464795 C157.519478,200.464795 171.251522,185.800466 171.251522,185.800466" id="Stroke-3" stroke="#EB5505" stroke-width="8"></path>
                <path d="M79.6099912,127.904286 C73.4572336,127.904286 68.8410677,132.627758 68.8410677,138.5714 C68.8410677,141.666488 69.8974173,144.448942 72.2767149,146.523946 C74.1219031,148.13893 76.8381004,149.23762 79.2767434,149.23762 C85.4897595,149.23762 90.174401,144.515042 90.174401,138.508873 C90.174401,132.823378 85.554583,127.904286 79.6099912,127.904286 L79.6099912,127.904286 Z M68.5984421,153.278725 L68.4641138,153.278725 L68.4641138,169.702633 L59.5144903,169.702633 L59.5144903,120.117207 L67.7253081,120.117207 L67.7253081,125.010621 L67.8628347,125.010621 C73.5829818,116.363944 87.7042451,118.977852 93.4259913,125.010621 C96.860958,128.560854 98.6048273,133.517964 98.6048273,138.745779 C98.6048273,149.258737 90.7961949,158.51291 79.8380434,158.51291 C75.1261582,158.51291 71.4912982,156.971477 68.5984421,153.278725 L68.5984421,153.278725 Z" id="Fill-4" fill="#EB5505"></path>
                <path d="M124.938927,127.995483 C118.525453,127.930707 114.072769,132.718933 114.072769,138.984047 C114.072769,144.862234 118.918311,149.393084 124.812058,149.327445 C131.090788,149.393084 135.406102,144.735273 135.406102,138.599711 C135.406102,132.588518 131.090788,127.930707 124.938927,127.995483 M135.731432,157.712316 L135.731432,152.6939 L135.601901,152.6939 C132.907339,156.508469 127.65974,158.928902 122.952652,158.928902 C117.168539,158.928902 112.451057,156.508469 109.225579,152.6939 C106.26316,149.143667 104.584855,144.32191 104.584855,139.161771 C104.584855,134.001632 105.929738,129.717307 109.355909,125.825507 C113.129095,121.405829 117.769019,119.333333 123.224507,119.333333 C128.331382,119.333333 132.769813,121.604877 135.731432,125.825507 L135.731432,120.533199 L144.013412,120.533199 L144.013412,157.712316 L135.731432,157.712316" id="Fill-5" fill="#EB5505"></path>
                <path d="M174.545454,155.041082 C172.052385,157.319792 168.279998,158.928902 164.857025,158.928902 C157.250685,158.928902 151.603299,153.694717 151.334642,146.066373 L160.480161,146.066373 C160.948711,148.40639 162.568646,150.21853 165.189647,150.21853 C167.346097,150.21853 169.359422,149.004333 169.359422,146.668297 C169.359422,143.584634 165.386342,142.644328 163.040395,141.84654 C157.321847,140.033605 152.679524,136.949942 152.679524,130.856662 C152.679524,123.884383 158.666729,119.333333 165.257611,119.333333 C171.447907,119.333333 177.302383,124.425 177.302383,130.782616 L168.551853,130.782616 C168.279998,129.044523 166.806385,128.104216 165.121684,128.104216 C163.169126,128.104216 161.559585,129.253922 161.627549,131.258741 C161.559585,133.734111 164.857025,134.340015 166.670457,134.867096 C172.664058,136.680032 178.307446,138.69122 178.307446,146.123699 C178.307446,149.610237 177.02733,152.629408 174.545454,155.041082" id="Fill-6" fill="#EB5505"></path>
                <path d="M208.056051,155.041082 C205.563781,157.319792 201.794593,158.928902 198.361226,158.928902 C190.762081,158.928902 185.111497,153.694717 184.836444,146.066373 L193.991558,146.066373 C194.456909,148.40639 196.080043,150.21853 198.697846,150.21853 C200.854295,150.21853 202.870819,149.004333 202.870819,146.668297 C202.870819,143.584634 198.897739,142.644328 196.547793,141.84654 C190.826047,140.033605 186.181326,136.949942 186.181326,130.856662 C186.181326,123.884383 192.170929,119.333333 198.76581,119.333333 C204.956106,119.333333 210.810581,124.425 210.810581,130.782616 L202.066448,130.782616 C201.794593,129.044523 200.313783,128.104216 198.636279,128.104216 C196.683721,128.104216 195.064585,129.253922 195.138945,131.258741 C195.064585,133.734111 198.361226,134.340015 200.185052,134.867096 C206.171457,136.680032 211.818843,138.69122 211.818843,146.123699 C211.818843,149.610237 210.535528,152.629408 208.056051,155.041082" id="Fill-7" fill="#EB5505"></path>
            </g>
        </g>
    </g>
</svg>