<?xml version="1.0" encoding="utf-8"?>
<!-- Generator: Adobe Illustrator 16.0.0, SVG Export Plug-In . SVG Version: 6.00 Build 0)  -->
<!DOCTYPE svg PUBLIC "-//W3C//DTD SVG 1.1//EN" "http://www.w3.org/Graphics/SVG/1.1/DTD/svg11.dtd">
<svg version="1.1" id="compass" xmlns="http://www.w3.org/2000/svg" xmlns:xlink="http://www.w3.org/1999/xlink" x="0px" y="0px"
	 width="64px" height="64px" viewBox="0 0 64 64" enable-background="new 0 0 64 64" xml:space="preserve">
<path id="c-compass" fill-rule="evenodd" clip-rule="evenodd" fill="#434343" d="M55,35.001C55,47.702,44.703,58,32,58S9,47.702,9,35.001
	c0-10.652,7.25-19.586,17.077-22.203C26.038,12.536,26,12.273,26,12c0-3.313,2.686-6,6-6s6,2.686,6,6
	c0,0.273-0.038,0.536-0.077,0.799C47.749,15.415,55,24.349,55,35.001L55,35.001z M36,12c0-2.209-1.791-4-4-4c-2.209,0-4,1.791-4,4
	c0,0.125,0.014,0.246,0.027,0.368C29.32,12.14,30.643,12,32,12s2.68,0.141,3.974,0.368C35.985,12.245,36,12.125,36,12L36,12z
	 M33.001,15.05V19h-2.002v-3.95C20.756,15.559,12.558,23.756,12.05,34H16v2h-3.95c0.508,10.243,8.706,18.441,18.949,18.949V51h2.002
	v3.949C43.244,54.441,51.442,46.243,51.95,36h-3.949v-2h3.949C51.442,23.756,43.244,15.559,33.001,15.05L33.001,15.05z M24.101,42.9
	l5.071-10.729l10.728-5.071l-5.071,10.727L24.101,42.9L24.101,42.9z"/>
</svg>
