<?xml version="1.0" encoding="utf-8"?>
<!-- Generator: Adobe Illustrator 16.0.0, SVG Export Plug-In . SVG Version: 6.00 Build 0)  -->
<!DOCTYPE svg PUBLIC "-//W3C//DTD SVG 1.1//EN" "http://www.w3.org/Graphics/SVG/1.1/DTD/svg11.dtd">
<svg version="1.1" id="muscle" xmlns="http://www.w3.org/2000/svg" xmlns:xlink="http://www.w3.org/1999/xlink" x="0px" y="0px"
	 width="64px" height="64px" viewBox="0 0 64 64" enable-background="new 0 0 64 64" xml:space="preserve">
<g id="c-muscle">
	<path fill="none" stroke="#434343" stroke-width="3" stroke-miterlimit="10" d="M23.628,16.287
		c0.012-1.512-0.155-3.833,0.581-5.205c0.5-0.934,0.872-1.536,1.706-2.19c1.944-1.525,4.747-1.813,7.168-1.813
		c1.353,0,4.167,0.169,5.646,0.773c1.563,0.638,4.355,3.355,4.79,6.125c0.201,1.279,0.205,2.556,0.646,3.773
		c0.37,1.023,0.935,2.065,1.483,3.016c1.077,1.865,2.408,3.69,3.626,5.544c3.061,4.658,4.11,11.157,4.343,12.337
		c0.103,0.52,0.38,4.423,0.74,5.802c0.151,0.579,1.012,6.826-4.586,8.398c-8.021,2.253-11.514,3.23-14.104,3.481
		c-2.601,0.253-5.274,0.631-8,0.353c-2.533-0.259-4.69-0.89-6.998-1.787c-2.059-0.801-3.415-0.782-5.751-0.668
		C13.82,54.279,9.481,54.785,8,54.828"/>
	<path fill="none" stroke="#434343" stroke-width="3" stroke-miterlimit="10" d="M7.417,32.829c4.332-1.37,10.845-2.32,14.519,0.815
		c1.49,1.271,2.95,2.607,4.419,3.922c1.403-0.865,2.766-1.495,4.477-1.655c0.904-0.084,1.929-0.056,2.835,0.002
		c0.839,0.053,1.668,0.146,2.487,0.403c0.293-1.022,1.148-2.029,1.597-3.07c0.502-1.167,0.62-2.309,0.748-3.583
		c0.13-1.296,0.191-2.729-0.146-3.936c-0.305-1.09-0.785-2.187-1.206-3.229c-0.471-1.166-1.063-3.166-1.658-3.744
		c-2.043,1.291-5.299,1.478-7.737,1.077c-1.292-0.213-2.251-0.596-3.352-1.317c-0.407-0.267-0.774-1.852-0.774-2.477"/>
	<path fill="none" stroke="#434343" stroke-width="2" stroke-miterlimit="10" d="M14.708,53.684c1.236-0.237,4.685-1.689,5.417-2.75
		c0.716-1.038,1.231-3.645,2-4.916c0.656-1.085,3.26-3.45,5.5-3.856c1.06-0.192,2.956-0.067,4.042,0.022"/>
	<path fill="none" stroke="#434343" stroke-width="2" stroke-miterlimit="10" d="M36.083,36.745
		c1.479,0.402,2.927,1.567,3.854,2.646c1.115,1.297,1.604,3.231,2.063,4.751"/>
	<path fill="none" stroke="#434343" stroke-width="2" stroke-miterlimit="10" d="M37.875,15.082
		c-0.363,1.026-1.306,2.205-1.792,2.792"/>
	<path fill="none" stroke="#434343" stroke-width="2" stroke-miterlimit="10" d="M34.25,13.082c-0.229,0.909-0.667,5-0.667,6.08"/>
	<path fill="none" stroke="#434343" stroke-width="2" stroke-miterlimit="10" d="M30.833,11.998
		c-0.173,1.086-0.825,5.792-0.792,6.792"/>
	<path fill="none" stroke="#434343" stroke-width="2" stroke-miterlimit="10" d="M27.833,10.873
		c-0.382,1.499-0.984,6.429-1.167,7.667"/>
</g>
</svg>
