<?xml version="1.0" encoding="utf-8"?>
<!-- Generator: Adobe Illustrator 16.0.0, SVG Export Plug-In . SVG Version: 6.00 Build 0)  -->
<!DOCTYPE svg PUBLIC "-//W3C//DTD SVG 1.1//EN" "http://www.w3.org/Graphics/SVG/1.1/DTD/svg11.dtd">
<svg version="1.1" id="圖層_1" xmlns="http://www.w3.org/2000/svg" xmlns:xlink="http://www.w3.org/1999/xlink" x="0px" y="0px"
	 width="13px" height="13px" viewBox="0 0 13 13" enable-background="new 0 0 13 13" xml:space="preserve">
<path fill-rule="evenodd" clip-rule="evenodd" fill="#888888" d="M6.5,13C2.91,13,0,10.09,0,6.5S2.91,0,6.5,0S13,2.91,13,6.5
	S10.09,13,6.5,13z M6.5,1C3.462,1,1,3.462,1,6.5C1,9.538,3.462,12,6.5,12C9.538,12,12,9.538,12,6.5C12,3.462,9.538,1,6.5,1z
	 M8.207,8.914L6.293,7H6V3h1v3.293l1.914,1.914L8.207,8.914z"/>
</svg>
