<?xml version="1.0" encoding="utf-8"?>
<!-- Generator: Adobe Illustrator 16.0.0, SVG Export Plug-In . SVG Version: 6.00 Build 0)  -->
<!DOCTYPE svg PUBLIC "-//W3C//DTD SVG 1.1//EN" "http://www.w3.org/Graphics/SVG/1.1/DTD/svg11.dtd">
<svg version="1.1" id="vr" xmlns="http://www.w3.org/2000/svg" xmlns:xlink="http://www.w3.org/1999/xlink" x="0px" y="0px"
	 width="64px" height="64px" viewBox="0 0 64 64" enable-background="new 0 0 64 64" xml:space="preserve">
<path id="c-vr" fill-rule="evenodd" clip-rule="evenodd" fill="#434343" d="M50.001,41h-2.89c-1.367,4.632-3.472,8.888-6.338,11.962
	C38.443,55.461,34.801,56,32,56c-2.813,0-6.466-0.554-8.803-3.069C20.343,49.858,18.25,45.614,16.888,41H14
	c-2.208,0-4-1.792-4-3.999V25c0-2.209,1.792-4,4-4h1.973C18.289,13.333,24.577,10,32,10s13.712,3.334,16.027,11h1.974
	C52.208,21,54,22.79,54,25v12.001C54,39.208,52.208,41,50.001,41L50.001,41z M25,50.001C27.049,52.057,29.187,53,32,53
	c2.801,0,4.991-0.992,7-2.999c1.974-1.974,3.69-5.19,4.936-9.001h-23.88C21.294,44.791,23.007,47.999,25,50.001L25,50.001z M32,13
	c-5.581,0-10.642,2.249-12.837,8h25.676C42.639,15.235,37.562,13,32,13L32,13z M51,26c0-1.105-0.895-2-2-2H15c-1.105,0-2,0.895-2,2
	v10c0,1.105,0.895,2,2,2h34c1.105,0,2-0.895,2-2V26L51,26z"/>
</svg>
