<?xml version="1.0" encoding="utf-8"?>
<!-- Generator: Adobe Illustrator 16.0.0, SVG Export Plug-In . SVG Version: 6.00 Build 0)  -->
<!DOCTYPE svg PUBLIC "-//W3C//DTD SVG 1.1//EN" "http://www.w3.org/Graphics/SVG/1.1/DTD/svg11.dtd">
<svg version="1.1" id="圖層_1" xmlns="http://www.w3.org/2000/svg" xmlns:xlink="http://www.w3.org/1999/xlink" x="0px" y="0px"
	 width="48px" height="48px" viewBox="0 0 48 48" enable-background="new 0 0 48 48" xml:space="preserve">
<path fill-rule="evenodd" clip-rule="evenodd" fill="#DCDCDC" d="M29.563,36.873c-3.076,0-5.97-0.764-8.52-2.096L9.441,46.379
	c-2.159,2.162-5.662,2.162-7.821,0c-2.16-2.158-2.16-5.66,0-7.82l11.602-11.604c-1.332-2.549-2.095-5.443-2.095-8.519
	C11.126,8.254,19.381,0,29.563,0C39.745,0,48,8.254,48,18.437C48,28.619,39.745,36.873,29.563,36.873L29.563,36.873z M29.563,5.531
	c-7.127,0-12.906,5.778-12.906,12.906s5.779,12.905,12.906,12.905c7.128,0,12.905-5.777,12.905-12.905S36.691,5.531,29.563,5.531
	L29.563,5.531z"/>
</svg>
