<?xml version="1.0" encoding="utf-8"?>
<!-- Generator: Adobe Illustrator 16.0.0, SVG Export Plug-In . SVG Version: 6.00 Build 0)  -->
<!DOCTYPE svg PUBLIC "-//W3C//DTD SVG 1.1//EN" "http://www.w3.org/Graphics/SVG/1.1/DTD/svg11.dtd">
<svg version="1.1" id="basketball" xmlns="http://www.w3.org/2000/svg" xmlns:xlink="http://www.w3.org/1999/xlink" x="0px" y="0px"
	 width="64px" height="64px" viewBox="0 0 64 64" enable-background="new 0 0 64 64" xml:space="preserve">
<path id="c-basketball" fill-rule="evenodd" clip-rule="evenodd" fill="#434343" d="M35.36,7.252c0.477,0.064,0.955,0.126,1.423,0.217
	c0.393,0.077,0.775,0.177,1.162,0.272c0.364,0.087,0.729,0.174,1.085,0.278c0.439,0.13,0.869,0.278,1.298,0.432
	c0.281,0.099,0.562,0.197,0.836,0.305c0.473,0.188,0.938,0.393,1.396,0.608c0.207,0.095,0.413,0.194,0.616,0.297
	c0.499,0.25,0.99,0.516,1.47,0.799c0.14,0.081,0.275,0.166,0.413,0.25c0.519,0.321,1.03,0.655,1.522,1.012
	c0.074,0.052,0.145,0.108,0.216,0.161c0.538,0.397,1.065,0.81,1.568,1.248c0.491,0.425,0.975,0.86,1.431,1.321l0,0
	c1.669,1.694,3.098,3.622,4.234,5.732c0.004,0.008,0.007,0.016,0.012,0.023c0.372,0.694,0.714,1.407,1.021,2.139
	c0.034,0.081,0.058,0.166,0.091,0.247c0.271,0.663,0.522,1.335,0.736,2.026c0.062,0.199,0.099,0.405,0.155,0.605
	c0.164,0.584,0.33,1.168,0.451,1.768c0.077,0.38,0.116,0.771,0.177,1.156c0.067,0.436,0.153,0.865,0.197,1.307
	c0.085,0.836,0.128,1.684,0.128,2.542c0,0.884-0.047,1.754-0.138,2.614c-0.021,0.208-0.066,0.41-0.094,0.618
	c-0.084,0.65-0.175,1.299-0.308,1.934c-0.041,0.189-0.1,0.371-0.144,0.559c-0.153,0.647-0.314,1.29-0.517,1.917
	c-0.044,0.139-0.102,0.271-0.148,0.408c-0.229,0.669-0.474,1.332-0.757,1.975c-0.037,0.083-0.081,0.161-0.118,0.244
	c-0.313,0.691-0.649,1.368-1.021,2.023c-0.021,0.036-0.044,0.07-0.064,0.106c-0.4,0.695-0.83,1.372-1.293,2.024
	c-0.003,0.003-0.006,0.008-0.008,0.011c-0.965,1.354-2.06,2.61-3.267,3.748l0,0c-0.463,0.437-0.934,0.865-1.428,1.266
	c-0.894,0.721-1.848,1.366-2.834,1.962c-0.229,0.136-0.449,0.283-0.681,0.413c-0.361,0.201-0.736,0.383-1.108,0.567
	c-0.31,0.153-0.619,0.31-0.937,0.45c-0.351,0.156-0.71,0.299-1.069,0.438c-0.361,0.143-0.728,0.279-1.097,0.402
	c-0.341,0.115-0.685,0.224-1.032,0.323c-0.416,0.121-0.838,0.228-1.262,0.325c-0.322,0.075-0.643,0.152-0.969,0.215
	c-0.494,0.094-0.998,0.164-1.503,0.229c-0.272,0.034-0.54,0.08-0.813,0.106c-0.788,0.075-1.584,0.12-2.391,0.12
	c-0.819,0-1.628-0.045-2.427-0.122c-0.295-0.027-0.583-0.081-0.875-0.12c-0.493-0.065-0.985-0.131-1.467-0.224
	c-0.364-0.07-0.719-0.162-1.076-0.248c-0.394-0.096-0.787-0.189-1.173-0.302c-0.399-0.117-0.79-0.251-1.181-0.387
	c-0.322-0.112-0.643-0.227-0.96-0.352c-0.422-0.167-0.84-0.348-1.251-0.536c-0.258-0.119-0.515-0.242-0.768-0.371
	c-0.443-0.222-0.88-0.453-1.307-0.7c-0.196-0.112-0.386-0.233-0.577-0.351c-0.461-0.284-0.919-0.575-1.36-0.89
	c-0.122-0.086-0.239-0.178-0.358-0.268c-0.491-0.36-0.975-0.729-1.436-1.124c-0.491-0.417-0.974-0.844-1.431-1.299l0,0
	c-2.249-2.241-4.067-4.907-5.337-7.865c-0.014-0.031-0.031-0.062-0.044-0.093c-0.284-0.667-0.528-1.357-0.753-2.053
	c-0.028-0.085-0.066-0.164-0.092-0.249c-0.202-0.647-0.361-1.313-0.51-1.982c-0.033-0.141-0.08-0.276-0.108-0.419
	c-0.133-0.643-0.219-1.303-0.3-1.963c-0.022-0.176-0.063-0.347-0.081-0.523C7.044,33.719,7,32.864,7,32
	c0-0.865,0.044-1.718,0.128-2.56c0.019-0.177,0.059-0.347,0.081-0.524c0.082-0.66,0.167-1.32,0.3-1.962
	c0.028-0.142,0.075-0.278,0.108-0.419c0.148-0.669,0.308-1.335,0.51-1.983c0.026-0.084,0.064-0.164,0.092-0.249
	c0.225-0.696,0.469-1.385,0.753-2.053c0.013-0.031,0.03-0.061,0.044-0.092c1.27-2.958,3.088-5.626,5.337-7.865l0,0
	c0.457-0.455,0.939-0.882,1.431-1.299c0.461-0.396,0.944-0.763,1.436-1.125c0.119-0.089,0.236-0.181,0.358-0.267
	c0.441-0.314,0.899-0.605,1.36-0.89c0.191-0.117,0.381-0.237,0.577-0.35c0.427-0.247,0.864-0.479,1.307-0.7
	c0.253-0.128,0.51-0.252,0.768-0.371c0.411-0.189,0.829-0.369,1.251-0.537c0.317-0.125,0.638-0.239,0.96-0.352
	c0.391-0.136,0.782-0.269,1.181-0.386c0.386-0.113,0.779-0.207,1.173-0.302c0.356-0.086,0.711-0.178,1.076-0.249
	c0.481-0.092,0.974-0.158,1.467-0.223c0.292-0.04,0.58-0.092,0.875-0.121C30.372,7.046,31.181,7,32,7
	c0.822,0,1.634,0.045,2.437,0.122C34.747,7.154,35.052,7.21,35.36,7.252L35.36,7.252z M16.856,47.907
	c3.395-3.113,5.695-8.322,6.051-14.318c-0.158-0.346-0.502-0.588-0.907-0.588H10.053C10.318,38.866,12.871,44.121,16.856,47.907
	L16.856,47.907z M10.053,30.999H22c0.405,0,0.749-0.242,0.907-0.588c-0.356-5.997-2.656-11.205-6.051-14.318
	C12.871,19.879,10.318,25.134,10.053,30.999L10.053,30.999z M30.999,10.051c-4.817,0.216-9.217,1.997-12.743,4.821
	c3.885,3.623,6.458,9.474,6.697,16.127H25V30c0,0.552,0.449,0.999,1.001,0.999h4c0.552,0,0.999-0.447,0.999-0.999V10.051
	L30.999,10.051z M30.999,34c0-0.552-0.447-0.999-0.999-0.999h-4C25.448,33.001,25,33.448,25,34v-0.999h-0.047
	c-0.239,6.653-2.812,12.504-6.697,16.127c3.526,2.824,7.926,4.605,12.743,4.821V34L30.999,34z M47.25,16.195
	c-3.382,3.007-5.715,8.184-6.173,14.188c0.151,0.363,0.507,0.616,0.922,0.616h11.948C53.685,25.186,51.177,19.973,47.25,16.195
	L47.25,16.195z M53.945,33.001H41.999c-0.508,0-0.911,0.385-0.974,0.877c0.297,5.998,2.468,11.23,5.702,14.423
	C50.953,44.492,53.671,39.07,53.945,33.001L53.945,33.001z M33.001,53.949c4.622-0.208,8.861-1.854,12.313-4.481
	c-3.735-3.758-6.175-9.72-6.292-16.467H39V34c0-0.552-0.448-0.999-1-0.999h-4c-0.552,0-0.999,0.447-0.999,0.999V53.949
	L33.001,53.949z M41,33.468v-0.467h-0.028C40.976,33.158,40.994,33.311,41,33.468L41,33.468z M33.001,30
	c0,0.552,0.447,0.999,0.999,0.999h4c0.552,0,1-0.447,1-0.999v0.999h0.069c0.349-6.667,2.955-12.482,6.817-16.016
	c-3.548-2.89-8.004-4.713-12.886-4.932V30L33.001,30z"/>
</svg>
