<?xml version="1.0" encoding="utf-8"?>
<!-- Generator: Adobe Illustrator 16.0.0, SVG Export Plug-In . SVG Version: 6.00 Build 0)  -->
<!DOCTYPE svg PUBLIC "-//W3C//DTD SVG 1.1//EN" "http://www.w3.org/Graphics/SVG/1.1/DTD/svg11.dtd">
<svg version="1.1" id="sailboat" xmlns="http://www.w3.org/2000/svg" xmlns:xlink="http://www.w3.org/1999/xlink" x="0px" y="0px"
	 width="64px" height="64px" viewBox="0 0 64 64" enable-background="new 0 0 64 64" xml:space="preserve">
<path id="c-sailboat" fill-rule="evenodd" clip-rule="evenodd" fill="#434343" d="M48.001,49.994c0,0-2.002,0.517-4.002,2.002
	C40.199,54.819,40,58,36,58s-8-2.001-10-4.003C24,51.996,14,49.994,14,49.994h-2v-2h40v2H48.001L48.001,49.994z M22,49.994
	c0,0,1.625,0,6,3.002c2.974,2.041,5.001,3.003,8,3.003c2,0,2.594-2.002,5-4.003c1.971-1.639,2.646-1.953,2.877-2.002H22L22,49.994z
	 M30.999,7l1.303,0.005L49,45.993H30.999V7L30.999,7z M34,42.991h9.999L34,18.977V42.991L34,42.991z M30,11.971v34.022H16L30,11.971
	L30,11.971z"/>
</svg>
