<?xml version="1.0" encoding="utf-8"?>
<!-- Generator: Adobe Illustrator 16.0.0, SVG Export Plug-In . SVG Version: 6.00 Build 0)  -->
<!DOCTYPE svg PUBLIC "-//W3C//DTD SVG 1.1//EN" "http://www.w3.org/Graphics/SVG/1.1/DTD/svg11.dtd">
<svg version="1.1" id="fruts" xmlns="http://www.w3.org/2000/svg" xmlns:xlink="http://www.w3.org/1999/xlink" x="0px" y="0px"
	 width="64px" height="64px" viewBox="0 0 64 64" enable-background="new 0 0 64 64" xml:space="preserve">
<g id="c-fruts">
	<path fill="none" stroke="#434343" stroke-width="3" stroke-miterlimit="10" d="M19.127,18.805c5.296-1.213,9.899,1.245,15.29,0.69
		c2.687-0.276,8.051-1.725,12.021-0.496c2.625,0.813,3.747,2.556,3.963,3.563c0.603,2.813,0.162,4.313-0.607,7.032
		c-0.665,2.35-1.645,3.879-2.228,6.304C46.321,41.068,48.168,46.757,47.33,52c-0.339,2.119-2.385,4.331-4.518,5.125
		c-2.336,0.868-5.026,0.812-6.981-0.521c-2.161-1.475-4.943-1.763-7.414-0.956c-2.408,0.785-3.993,1.014-6.551,1.138
		c-2.179,0.105-4.524-1.226-5.491-3.161c-1.174-2.351-1.947-5.307-1.708-7.875c0.518-5.558,1.217-8.778,0.257-11.14
		c-0.971-2.388-2.502-5.377-2.16-9.747C13.063,21.063,17.25,19.219,19.127,18.805"/>
	<path fill="none" stroke="#434343" stroke-width="2" stroke-miterlimit="10" d="M19.75,28.125c0.847-2.201,2.711-4.523,4.875-5.813
		c2.652-1.581,5.663-1.892,8.706-1.627c5.794,0.502,10.021,7.013,10.294,7.44"/>
	<path fill="none" stroke="#434343" stroke-width="2" stroke-miterlimit="10" d="M28.083,18c0.47-1.379,1.792-4.875,4.433-7.146
		c1.893-1.627,3.87-2.523,6.317-2.77c1.182-0.12,5.17-0.004,5.17,3.333c0,1.458-1.864,1.989-2.899,2.021
		c-2.167,0.068-4.081,1.624-4.542,2.438c-0.371,0.655-1.161,2.589-1.5,3.125"/>
</g>
</svg>
