<?xml version="1.0" encoding="utf-8"?>
<!-- Generator: Adobe Illustrator 16.0.0, SVG Export Plug-In . SVG Version: 6.00 Build 0)  -->
<!DOCTYPE svg PUBLIC "-//W3C//DTD SVG 1.1//EN" "http://www.w3.org/Graphics/SVG/1.1/DTD/svg11.dtd">
<svg version="1.1" id="heart" xmlns="http://www.w3.org/2000/svg" xmlns:xlink="http://www.w3.org/1999/xlink" x="0px" y="0px"
	 width="64px" height="64px" viewBox="0 0 64 64" enable-background="new 0 0 64 64" xml:space="preserve">
<path id="c-heart" fill="#434343" d="M42.457,11c-4.086,0-7.911,1.858-10.458,4.969C29.452,12.857,25.628,11,21.542,11
	C14.076,11,8,17.1,8,24.596c0,5.872,3.487,10.661,10.364,18.181c5.291,5.789,11.047,10.271,12.686,11.506L31.999,55l0.951-0.718
	c1.639-1.235,7.394-5.716,12.686-11.505c6.877-7.521,10.363-12.312,10.363-18.182C55.999,17.1,49.925,11,42.457,11L42.457,11z
	 M43.304,40.629c-4.352,4.762-9.033,8.609-11.305,10.383c-2.271-1.772-6.954-5.621-11.305-10.383
	c-6.234-6.818-9.53-11.055-9.53-16.034c0-5.745,4.657-10.418,10.378-10.418c3.765,0,7.243,2.061,9.074,5.377L32,22.06l1.384-2.506
	c1.833-3.316,5.309-5.377,9.074-5.377c5.723,0,10.378,4.674,10.378,10.418C52.835,29.574,49.538,33.811,43.304,40.629L43.304,40.629
	z"/>
</svg>
