<?xml version="1.0" encoding="utf-8"?>
<!-- Generator: Adobe Illustrator 16.0.0, SVG Export Plug-In . SVG Version: 6.00 Build 0)  -->
<!DOCTYPE svg PUBLIC "-//W3C//DTD SVG 1.1//EN" "http://www.w3.org/Graphics/SVG/1.1/DTD/svg11.dtd">
<svg version="1.1" id="圖層_3" xmlns="http://www.w3.org/2000/svg" xmlns:xlink="http://www.w3.org/1999/xlink" x="0px" y="0px"
	 width="300px" height="300px" viewBox="0 0 300 300" enable-background="new 0 0 300 300" xml:space="preserve">
<g id="g12" transform="matrix(1.25,0,0,-1.25,-229.77835,197.23072)">
	<g id="g2943" transform="matrix(1.5408393,0,0,1.5408393,-96.336841,-7.567328)">
		<path id="path38" fill="#8CC751" d="M309.532,35.534c-6.536-0.042-12.725-0.095-14.45,0.059c-3.492,0.303-5.824,2.587-6.094,5.947
			c-0.183,2.206-0.183,4.032-0.01,5.772c0.317,3.272,3.054,6.388,6.104,6.538c1.092,0.059,4.016,0.052,9.311,0.029l15.409-0.029
			v6.392c0,0-12.273,0.013-15.964,0.029c-4.953,0.023-7.446,0.026-9.024-0.029c-3.474-0.133-6.385-1.37-8.646-3.667
			c-2.144-2.17-3.422-5.622-3.612-9.116c-0.109-1.886-0.144-4.349,0-5.814c0.355-3.758,1.573-6.708,3.612-8.772
			c2.18-2.219,5.498-3.625,8.649-3.667c2.587-0.032,24.984,0,24.984,0v6.388C319.802,35.593,313,35.567,309.532,35.534"/>
		<path id="path40" fill="#8CC751" d="M239.97,59.9v-6.385h15.204V29.316h6.417v24.198h15.204V59.9H239.97z"/>
		<path id="path50" fill="#8CC751" d="M233.305,47.825c-0.045,3.438-1.26,6.388-3.611,8.773c-2.454,2.497-6.195,3.534-8.646,3.665
			c-2.13,0.121-10.525,0.081-12.496,0c-2.777-0.118-4.8-0.947-5.814-1.703c-0.01-0.007-0.02-0.004-0.02,0.013v11.618h-6.421V29.206
			h6.411c0,0-0.128,16.776,0.016,18.603c0.254,3.246,2.717,5.798,5.859,6.072c2.518,0.215,10.078,0.156,12.45-0.004
			c3.256-0.225,5.66-2.77,5.85-6.198c0.062-1.262-0.003-18.473-0.003-18.473h6.424C233.305,29.206,233.322,46.35,233.305,47.825"/>
		<path id="path52" d="M328.396-1.273c1.328,0.013,2.568,0.274,2.565,1.344c0,0.182,0.025,0.395-0.049,0.636
			c-0.18,0.362-0.414,0.343-0.65,0.31l0.085,0.019c0,0-0.841-0.232-1.523-0.241h-0.02c-0.702,0.023-0.904,0.72-0.941,1.491
			c-0.013,0.13-0.016,0.271-0.013,0.424c0.016,1.178,0.382,2.97,0.62,3.971c0.071,0.355,0.287,0.601,0.704,0.63
			c2.026,0.157,4.542,0.189,4.483,1.399c0,0.004-0.003,0.014,0,0.02c-0.003,1.044-1.021,1.275-1.81,1.295c-0.029,0-0.054,0-0.079,0
			c-0.317-0.003-2.117-0.205-2.12-0.205l-0.189-0.023l0.049,0.187c0.187,0.695,0.372,1.524,0.751,2.349
			c0.064,0.147,0.098,0.306,0.098,0.479c0.007,0.366-0.127,0.774-0.327,1.077c-0.193,0.3-0.443,0.49-0.63,0.496h-0.026
			c-0.378-0.004-0.737-0.256-1.152-0.917c-0.532-0.888-0.822-2.07-1.384-3.391c-0.056-0.193-0.222-0.336-0.521-0.359
			c-2.206-0.339-2.509-1.135-2.526-1.68c0,0,0-0.01,0-0.025c0.02-0.855,0.405-1.135,0.881-1.156c0,0,0.003,0,0.007,0
			c0.003,0,0.007,0,0.007,0c0.147-0.004,0.555,0.15,0.842,0.157h0.033c0.081-0.004,0.159-0.007,0.237-0.056
			c0.084-0.052,0.121-0.157,0.114-0.247c0-0.05-0.005-0.105-0.019-0.173c-0.183-0.756-0.489-2.643-0.505-3.667
			c0-0.098,0-0.187,0.007-0.268c0.047-1.106,0.271-2.188,0.73-2.818c0.53-0.689,1.145-1.037,2.18-1.057h0.059
			C328.374-1.273,328.387-1.273,328.396-1.273 M316.276,5.803c-0.043-2.343-1.67-3.85-1.794-5.941
			c-0.009-0.14-0.016-0.271-0.019-0.398c0.013-0.61,0.081-0.954,0.863-1.139c0.163-0.036,0.309-0.052,0.446-0.055
			c0.914-0.014,1.293,0.678,1.707,1.558c0.402,0.864,0.799,1.883,1.811,2.306l0.176,0.076l0.003-0.2
			c0.013-2.012,1.204-3.027,2.242-3.04c0.858-0.007,1.648,0.632,1.677,2.1c0.003,0.208-0.01,0.434-0.044,0.676
			c-0.046,0.035-0.094,0.049-0.162,0.052c-0.219,0.007-0.512-0.169-0.78-0.176c-0.144-0.01-0.306,0.115-0.329,0.319
			c0.006,0.424,0.031,0.895,0.038,1.365c0.01,0.716-0.028,1.436-0.244,1.947c-0.219,0.511-0.568,0.832-1.276,0.848
			c-0.685,0.013-1.253-0.509-1.53-0.78l-0.225-0.215l0.003,0.309l0.007,0.294c-0.022,0.479-0.105,0.636-0.372,0.966
			c-0.309,0.27-0.635,0.391-0.949,0.398c-0.486,0.007-0.956-0.265-1.266-0.77C316.272,6.136,316.276,5.969,316.276,5.803
			 M309.545,4.247c-0.019-0.004-0.675-2.114-1.779-2.206c0,0-0.763-0.124-0.746,0.679c-0.02,0.499,0.473,1.292,0.723,1.625
			c0.309,0.399,0.858,1.115,1.729,1.256l0.131,0.019l0.019-0.131c0.019-0.121,0.029-0.234,0.036-0.342
			C309.686,4.589,309.552,4.257,309.545,4.247 M312.049,7.073c-0.05,0.526-0.964,1.634-1.59,1.569
			c-0.066-0.003-0.121-0.013-0.176-0.036l-0.02-0.01c-2.166-0.555-5.491-3.406-5.311-6.835c0.016-0.363,0.073-0.735,0.173-1.116
			c0.222-0.8,0.865-1.391,2.081-1.337c0.161,0.006,0.333,0.029,0.507,0.059c0.633,0.172,1.376,0.6,1.719,1.087l0.238,0.333V0.376
			c0-0.037,0-0.076,0-0.109c0.052-1.025,0.835-1.911,1.562-1.879c0.252,0.013,0.506,0.127,0.754,0.398
			c0.085,0.091,0.092,0.211,0.109,0.349c0.15,1.214,0.144,2.3,0.094,3.331c-0.044,0.876-0.121,1.714-0.159,2.542
			C311.995,5.699,311.986,6.391,312.049,7.073 M299.268-1.443h0.003c0.757-0.007,1.334,0.316,1.625,1
			c0.134,0.327,0.193,1.256,0.678,2.542c1.067,2.084,2.506,5.994,2.506,6.075c0.228,1.288-0.63,1.967-1.69,1.811
			c-1.063-0.153-1.061-1.357-1.282-2.58c-0.467-2.454-2.512-4.744-2.871-7.149V0.226c-0.014-0.822,0.395-1.524,1.024-1.67h0.007
			V-1.443z M291.985,15.023c-2.088-3.337-4.603-9.288-4.682-15.109c-0.003-0.14-0.003-0.284-0.003-0.431
			c0.003-0.586,0.346-0.991,1.191-1.043c0.022,0,0.046,0,0.068-0.004c0.747,0,0.894,0.48,1.054,0.748
			c0.114,0.176,0.359,1.605,0.502,2.945l0,0l0.003,0.014c0.555,2.639,1.282,6.789,2.826,9.504c0.486,0.838,1.384,1.575,1.384,2.433
			c0,0.059-0.003,0.114-0.01,0.169c-0.078,0.708-0.766,1.184-1.419,1.191C292.54,15.447,292.203,15.314,291.985,15.023
			 M298.25,16.041c-1.533-5.054-4.317-10.169-4.855-16.287c0-0.573,0.173-1.035,0.777-1.156c0.067-0.007,0.14-0.013,0.208-0.017
			c0.486-0.006,0.962,0.169,1.227,0.502c0.714,0.888,0.418,1.72,0.685,3.015c0.396,1.851,1.381,4.927,1.381,4.929
			c0,0.004,1.562,4.812,2.865,7.449c0.091,0.203,0.218,0.581,0.221,0.963c0.003,0.443-0.13,0.864-0.633,1.106l-0.003,0.003
			c-0.28,0.14-0.535,0.196-0.757,0.199C298.808,16.755,298.413,16.42,298.25,16.041 M305.363,16.197
			c-0.01-0.858,0.588-1.764,1.481-1.779c0.277-0.006,0.588,0.073,0.924,0.262c0.443,0.32,0.584,0.688,0.589,1.063
			c0.016,0.689-0.501,1.41-0.589,1.495c-0.127,0.131-0.389,0.312-0.973,0.323c-0.084,0-0.18-0.003-0.277-0.01
			c-0.003,0-0.007,0-0.01,0l0,0l0,0l0,0C305.702,17.408,305.379,16.84,305.363,16.197 M282.848,14.374
			c-0.009-0.833,0.673-1.734,1.488-1.749c0.014,0,0.02,0,0.023,0c0.914,0.006,1.387,0.73,1.403,1.496
			c0.003,0.78-0.458,1.54-1.485,1.56c-0.061,0-0.127,0-0.199-0.01C283.18,15.49,282.863,14.958,282.848,14.374 M284.05,7.976
			c-0.299,0-0.567-0.133-0.766-0.529c-0.46-1.908-1.883-4.345-1.914-6.803c-0.007-0.309,0.012-0.621,0.059-0.929
			c0.049-0.343,0.263-1.09,1.05-1.094c0.033,0,0.062,0,0.094,0c0.969,0.073,1.116,0.297,1.141,0.702
			c-0.064,0.271-0.09,0.538-0.088,0.803c0.043,2.14,1.98,4.048,1.992,5.95c0,0.14-0.007,0.28-0.027,0.42
			c-0.081,0.682-0.878,1.471-1.52,1.478h-0.021V7.976z M273.108-0.96L273.108-0.96c1.529-0.073,1.739,2.805,2.225,3.77
			c1.057,1.992,2.443,2.528,4.089,2.943c0,0,0.744,0.293,0.741,1.076c0.003,0.062-0.003,0.127-0.01,0.193
			c-0.137,0.789-0.327,0.923-0.832,1.012c-0.17,0.025-0.336,0.036-0.506,0.039c-1.641,0.029-3.282-0.939-3.846-1.957l-0.206-0.36
			l-0.04,0.412c-0.04,0.573,0.016,1.971-0.78,1.947c-0.002,0-0.009,0-0.024,0c-1.064,0.026-1.351-1.109-1.446-1.484
			c-0.229-1.498-0.408-3.096-0.428-4.582c-0.012-0.916,0.036-1.794,0.169-2.565C272.469-0.955,273.049-0.96,273.108-0.96
			 M265.863,1.869c-0.777-0.601-1.625-0.983-1.948-0.989l-0.14,0.003l-0.019,0.365c0,1.019,0.202,1.305,0.573,1.789
			c0.434,0.561,1.344,1.213,1.995,1.213c0.133-0.003,0.391-0.037,0.509-0.1c0.16-0.079,0.234-0.369,0.229-0.532
			C267.041,3.098,266.496,2.377,265.863,1.869 M267.859,6.439c-0.415,0.143-0.793,0.205-1.139,0.209
			c-1.49,0.025-2.495-1.057-3.519-1.988l-0.303-0.278l0.088,0.405c0.767,3.487,1.224,6.859,1.952,10.525
			c0.01,0.065,0.029,0.199,0.029,0.362c0,0.604-0.147,1.56-1.22,1.615c-0.036,0.003-0.076,0.003-0.115,0.003
			c-0.852,0.013-1.23-0.636-1.416-1.234c-0.306-1.034-0.327-2.422-0.492-3.787c-0.526-4.085-1.581-9.021-2.065-12.695
			c0.177-0.863,0.663-0.586,1.403-0.881l-0.003-0.003c0.056-0.019,0.056-0.044,0.066-0.049c0.007-0.014,0.007-0.016,0.01-0.023
			c0.003-0.006,0.003-0.01,0.003-0.013c0.003-0.01,0.007-0.017,0.01-0.026c0.003-0.015,0.013-0.039,0.023-0.068
			c0.025-0.055,0.061-0.133,0.127-0.214c0.123-0.157,0.336-0.526,0.741-0.385c3.811,1.148,5.475,1.862,6.838,3.986
			c0.287,0.486,0.424,1.061,0.431,1.641C269.327,4.827,268.704,6.113,267.859,6.439 M234.976-10.611c0-0.134,0.02-0.274,0.052-0.411
			c0.173-0.789,1.354-0.878,1.357-0.878c0.294-0.022,0.584-0.032,0.872-0.032c6.564,0,10.633,5.657,10.636,12.555
			c0.003,1.168-0.114,2.372-0.358,3.585V4.22c-0.007,0-0.045,0.355-0.258,0.561c-0.261,0.211-0.474,0.287-0.656,0.287
			c-0.457,0.013-0.858-0.539-1.207-1.191c-0.362-0.645-0.642-1.344-1.09-1.57c-0.329-0.146-0.604-0.222-0.838-0.222
			c-0.763,0.013-0.956,0.753-0.959,1.621c0,0.656,0.104,1.445,0.196,2.219c0.007,0.049,0.01,0.1,0.01,0.153
			c-0.013,0.355-0.114,0.851-0.799,0.914c-0.026,0-0.052,0-0.081,0c-0.887-0.004-1.152-0.627-1.27-1.076
			c-0.13-0.545-0.453-1.383-0.453-2.574c0-1.187,0.235-2.095,0.235-2.095c0.333-1.102,0.851-1.517,1.438-1.791
			c0.281-0.109,0.571-0.157,0.858-0.157c1.028-0.115,2.218,0.33,2.317,0.731c-0.114-1.263-0.225-2.422-0.519-3.585
			c-0.45-1.553-0.999-2.362-1.413-2.898c-1.566-1.826-4.039-3.107-6.707-3.107c-0.092,0-0.183,0-0.258,0.004
			C235.217-9.635,234.989-10.083,234.976-10.611 M237.651,13.891c-0.552-0.324-0.633-0.905-0.897-1.675
			c-0.156-0.439-2.336-10.723-2.329-11.973c0,0,0-0.006,0-0.019c-0.101-1.48,0.89-1.892,0.89-1.892
			c0.111-0.022,0.47-0.032,0.47-0.032c0.806-0.014,1.139,0.878,1.279,1.357c0.307,1.089,0.291,2.391,0.545,3.725
			c0.382,2.001,1.762,7.612,1.86,8.434c0.046,0.361,0.107,0.666,0.107,0.981c0.068,0.836-0.718,1.322-1.171,1.325
			C238.17,14.123,237.913,14.044,237.651,13.891 M228.277-1.111c0.874,0.032,1.426,0.336,1.433,1.135v0.033
			c-0.007,0.437-0.307,0.714-0.698,1.028c-0.242,0.199-0.421,0.38-0.467,1.161c-0.007,0.111-0.012,0.234-0.012,0.372
			c0.003,1.295,0.358,3.736,0.59,4.763c0.062,0.355,0.267,0.653,0.704,0.645c0.313,0.004,0.858,0.036,1.119,0.043
			c0.281,0.003,1.031-0.019,1.703,0.133c0.682,0.16,1.22,0.467,1.217,1.109c0,0.004,0,0.017,0,0.024
			c-0.026,1.072-0.868,1.112-1.645,1.126c-0.029,0-2.17-0.134-2.17-0.134l0.062,0.186c0.218,0.663,0.49,1.553,0.93,2.401
			c0.185,0.299,0.825,2.497-0.962,2.497c-0.509-0.068-0.979-0.608-1.439-1.593c-0.542-1.203-0.557-1.723-1.201-3.263
			c-0.045-0.179-0.215-0.377-0.538-0.365c-0.594-0.01-1.028-0.091-1.468-0.091c-0.147,0-0.327-0.022-0.486,0.003
			c-0.32,0-0.656-0.234-0.656-0.234c-0.114-0.14-0.323-0.238-0.386-0.776V9.062c0.013-0.861,0.353-1.351,0.77-1.344
			c0,0,1.524-0.042,1.54-0.042c0.078-0.004,0.157-0.007,0.235-0.056c0.078-0.056,0.114-0.157,0.111-0.241
			c0-0.053-0.01-0.108-0.023-0.177c-0.183-0.812-0.578-3.644-0.578-4.62c0-0.025,0-0.046,0.003-0.064
			c0.04-1.756,0.552-3.641,2.261-3.629c0.007,0,0.016,0.004,0.023,0.004C228.261-1.107,228.271-1.111,228.277-1.111 M218.147,4.184
			l0.016,0.115c0.176,1.038,1.269,1.889,1.84,1.908c0.01,0,0.026,0,0.046-0.003c0.303-0.032,0.466-0.294,0.466-0.521
			c0-0.013,0-0.022,0-0.04c0-0.917-1.18-1.478-1.85-1.508c-0.059,0-0.355,0.007-0.405,0.017L218.147,4.184L218.147,4.184z
			 M223.416,2.612c-0.071,0.13-0.185,0.215-0.284,0.215c-0.078,0-0.206,0.01-0.382-0.165c-0.767-0.761-1.334-1.746-2.646-1.749
			c0,0-0.009,0-0.026-0.003c-0.927-0.01-1.246,0.463-1.416,1.256l-0.029,0.118l0.118,0.04c0.839,0.131,3.53,0.953,3.511,3.106
			c0,0.329-0.059,0.695-0.196,1.099c-0.303,0.892-1.057,1.263-1.952,1.267c-1.554,0.006-3.148-1.07-3.553-2.78l-0.016-0.202
			l-0.177,0.097c-0.14,0.075-0.27,0.109-0.398,0.109c-0.522,0-0.986-0.601-0.988-1.156c0.003-0.046,0.003-0.087,0.01-0.128
			c0.13-0.727,0.457-1.155,0.982-1.468l0.065-0.036V2.153c0-0.026-0.003-0.049-0.003-0.073c0.009-2.346,1.573-3.331,3.298-3.341
			c1.984,0.004,4.104,1.351,4.151,3.569C223.485,2.308,223.485,2.491,223.416,2.612 M188.526,1.314c0,0-0.235,0.032-0.327,0.1
			c-0.268,0.193-0.386,0.483-0.382,0.792c0.012,1.133,1.357,2.758,2.215,3.625c0.803,0.8,1.207,1.113,1.615,1.123
			c0.14,0,0.267-0.046,0.388-0.115c0.196-0.104,0.271-0.32,0.271-0.552C192.265,4.857,189.818,1.376,188.526,1.314 M195.234,7.346
			c0.003,0.48-0.18,0.933-0.182,0.944c-0.6,0.943-1.374,1.325-2.242,1.327c-1.501,0.004-3.298-1.2-4.701-2.855
			c-1.41-1.651-2.424-3.739-2.421-5.448c0-1.084,0.395-2.001,1.334-2.604c0.287-0.137,0.571-0.202,0.851-0.202
			c1.526-0.013,3.011,1.905,3.942,2.74l0.209,0.18l-0.01-0.273c-0.163-4.333-1.582-11.856-1.582-11.89
			c0.003-0.766,0.528-1.253,1.112-1.253c0.235,0,0.486,0.079,0.715,0.255c1.182,1.159,1.104,3.448,1.436,5.664
			c0.542,3.55,0.313,7.413,1.014,10.715c0.219,1.016,0.464,2.043,0.496,2.375C195.205,7.02,195.234,7.242,195.234,7.346
			 M203.587,1.398c0.372-1.7,0.443-2.711,2.639-3.03l0,0c0.166-0.004,0.414,0.121,0.607,0.336c0.196,0.212,0.333,0.506,0.333,0.819
			c0,0.094-0.01,0.186-0.033,0.271c-0.225,0.652-0.636,0.689-0.91,1.422c-0.166,0.46-0.218,0.976-0.218,1.504
			c0,1.135,0.248,2.349,0.244,3.262c-0.023,0.92-0.196,1.436-1.087,1.449c-0.052,0-0.111-0.003-0.173-0.01
			c-0.026,0.007-0.365-0.111-0.594-0.519c-1.028-1.764-2.107-4.268-3.942-4.441c-0.332,0.053-0.453,0.375-0.443,0.724
			c0.003,1.139,0.969,3.407,1.436,4.764c0.04,0.147,0.055,0.284,0.055,0.411c0,0.763-0.818,1.237-1.344,1.234
			c-0.528-0.004-1.073-0.262-1.396-0.875c-0.44-0.815-1.07-3.386-1.066-5.628c0-1.035,0.133-2.001,0.463-2.693
			c0.339-0.692,0.839-1.102,1.635-1.106c0.043,0,0.085,0,0.128,0.004c1.498,0.071,2.424,1.448,3.464,2.183l0.16,0.111L203.587,1.398
			L203.587,1.398z M210.389-0.908c0.515,0,0.903,0.127,0.988,0.454c0.427,2.571,0.966,4.251,1.554,6.467
			c0.029,0.143,0.046,0.28,0.046,0.418c-0.007,0.734-0.417,1.318-1.119,1.318c-0.228,0-0.496-0.066-0.783-0.206
			c-1.351-0.898-1.729-4.555-2.049-7.201c-0.003-0.032-0.003-0.071-0.003-0.114c0-0.564,0.372-1.016,0.835-1.097
			C210.037-0.891,210.216-0.908,210.389-0.908 M212.393,14.997c-0.301-0.301-0.421-0.804-0.421-1.156
			c0.003-0.963,0.92-1.706,1.804-1.706c0.564,0.003,1.243,0.284,1.397,1.028c0.003,0.036,0.003,0.068,0.003,0.1
			c0,0.963-0.826,2.066-1.814,2.066C213.048,15.329,212.712,15.226,212.393,14.997 M329.764,10.215l-0.127,0.032L329.764,10.215z"/>
	</g>
</g>
</svg>
