<?xml version="1.0" encoding="utf-8"?>
<!-- Generator: Adobe Illustrator 16.0.0, SVG Export Plug-In . SVG Version: 6.00 Build 0)  -->
<!DOCTYPE svg PUBLIC "-//W3C//DTD SVG 1.1//EN" "http://www.w3.org/Graphics/SVG/1.1/DTD/svg11.dtd">
<svg version="1.1" id="圖層_1" xmlns="http://www.w3.org/2000/svg" xmlns:xlink="http://www.w3.org/1999/xlink" x="0px" y="0px"
	 width="300px" height="300px" viewBox="0 0 300 300" enable-background="new 0 0 300 300" xml:space="preserve">
<g>
	<polygon fill="#005697" points="38.396,80.575 45.295,80.575 45.295,220.225 38.396,220.225 	"/>
	<polygon fill="#005697" points="27.479,95.759 32.371,95.759 32.371,205.042 27.479,205.042 	"/>
	<polygon fill="#005697" points="18.193,112.194 21.582,112.194 21.582,188.605 18.193,188.605 	"/>
	<polygon fill="#005697" points="50.815,95.759 55.709,95.759 55.709,205.042 50.815,205.042 	"/>
	<polygon fill="#005697" points="62.107,112.194 65.495,112.194 65.495,188.605 62.107,188.605 	"/>
	<path fill="#9D9B9F" d="M67.378,134.152c8.281,1.755,13.676,4.266,13.676,6.901c0,4.768-17.189,8.655-38.394,8.655
		s-38.395-3.887-38.395-8.655c0-2.635,4.894-5.019,12.799-6.776C6.65,136.034,0,138.795,0,142.057
		c0,5.27,19.07,12.423,42.661,12.423c23.463,0,42.659-7.151,42.659-12.423C85.32,138.795,78.168,135.907,67.378,134.152
		L67.378,134.152z"/>
	<path fill="#005697" d="M169.512,181.831c-7.527,0.376-15.057,3.638-23.212,3.638c-21.582,0-40.652-11.418-40.652-35.507
		c0-21.456,16.563-34.63,37.266-34.63c7.277,0,11.417,0.626,18.444,2.634l2.884-1.255v11.543l-1.757-0.252
		c-1.882-5.897-8.531-9.535-18.945-9.535c-16.813,0-28.734,12.297-28.734,29.234c0,20.702,12.546,34.631,33.626,34.631
		c3.764,0,13.301-1.381,13.301-6.275v-9.535c0-3.638-0.629-4.141-4.394-4.391v-1.757c2.638,0.253,5.396,0.378,8.157,0.378
		c2.634,0,5.395-0.123,8.153-0.378v1.757c-2.884,0-4.141,1.004-4.141,4.141v15.56H169.512z"/>
	<path fill="#005697" d="M212.17,118.218c-3.764,0-4.768,2.885-4.768,5.896l-0.501,52.575c0,3.011,1.505,5.895,4.392,5.895v1.756
		c-2.01,0-4.894-0.5-8.157-0.5c-3.01,0-5.895,0.5-7.778,0.5v-1.756c2.635,0,4.267-2.884,4.267-5.895l-0.504-52.575
		c0-3.011-1.128-5.896-4.892-5.896v-1.757c3.013,0,5.897,0.502,8.907,0.502c3.264,0,6.15-0.502,9.034-0.502V118.218L212.17,118.218z
		"/>
	<path fill="#005697" d="M296.612,182.708c-6.021,1.757-14.302,2.761-20.576,2.761c-23.214,0-38.646-14.18-38.646-35.005
		c0-20.954,15.433-35.132,38.646-35.132c8.655,0,17.942,3.512,19.823,3.512c0.376,0,0.878-0.377,1.38-0.501l1.131,10.415h-1.758
		c-3.514-7.528-13.3-10.288-20.576-10.288c-17.44,0-29.487,11.418-29.487,31.997c0,14.556,13.177,31.867,29.487,31.867
		c11.544,0,18.068-2.883,22.71-10.039l1.254,0.63L296.612,182.708L296.612,182.708z"/>
</g>
</svg>
