<?xml version="1.0" encoding="utf-8"?>
<!-- Generator: Adobe Illustrator 16.0.0, SVG Export Plug-In . SVG Version: 6.00 Build 0)  -->
<!DOCTYPE svg PUBLIC "-//W3C//DTD SVG 1.1//EN" "http://www.w3.org/Graphics/SVG/1.1/DTD/svg11.dtd">
<svg version="1.1" id="email" xmlns="http://www.w3.org/2000/svg" xmlns:xlink="http://www.w3.org/1999/xlink" x="0px" y="0px"
	 width="48px" height="33px" viewBox="0 0 48 33" enable-background="new 0 0 48 33" xml:space="preserve">
<path id="SVGID_1_" fill="#DCDCDC" d="M45.003,33H2.999C1.343,33,0,31.652,0,29.998V3c0-1.658,1.343-3,2.999-3h42.004
	C46.657,0,48,1.342,48,3v26.998C48,31.652,46.657,33,45.003,33L45.003,33z M37.631,29.998L28.51,21.18l-2.297,2.297
	c-1.173,1.172-3.073,1.172-4.243,0l-2.371-2.37l-9.121,8.892H37.631L37.631,29.998z M2.999,29.998h3.093l11.291-11.106L2.999,4.508
	V29.998L2.999,29.998z M5.837,3L24,20.998L42.309,3H5.837L5.837,3z M45.003,4.691l-14.204,14.2l11.294,11.106h2.91V4.691
	L45.003,4.691z"/>
</svg>
