<?xml version="1.0" encoding="utf-8"?>
<!-- Generator: Adobe Illustrator 22.0.1, SVG Export Plug-In . SVG Version: 6.00 Build 0)  -->
<svg version="1.1" id="layer" xmlns="http://www.w3.org/2000/svg" xmlns:xlink="http://www.w3.org/1999/xlink" x="0px" y="0px"
	 viewBox="0 0 1040 440" style="enable-background:new 0 0 1040 440;" xml:space="preserve">
<style type="text/css">
	.st0{fill:none;stroke:#BFBFBF;stroke-miterlimit:10;}
	.st1{fill:#FAFAFA;}
	.st2{fill:#AAAAAA;}
	.st3{fill:#969696;}
	.st4{fill:#333333;}
	.st5{fill:#DEDEDE;}
</style>
<g id="c">
	<circle id="_x31__1_" class="st0" cx="520" cy="120" r="4"/>
	<circle id="_x32__1_" class="st0" cx="93" cy="160" r="4"/>
	<circle id="_x33__1_" class="st0" cx="93" cy="280" r="4"/>
	<circle id="_x34_" class="st0" cx="93" cy="320" r="4"/>
	<circle id="_x35__1_" class="st0" cx="460" cy="160" r="4"/>
	<circle id="_x36__1_" class="st0" cx="340" cy="320" r="4"/>
	<circle id="_x37_" class="st0" cx="580" cy="320" r="4"/>
	<circle id="_x38__2_" class="st0" cx="460" cy="280" r="4"/>
	<circle id="_x39_" class="st0" cx="699" cy="160" r="4"/>
	<circle id="_x31_0" class="st0" cx="940" cy="160" r="4"/>
</g>
<g id="box">
	<rect id="_x38_" x="0" y="320" class="st1" width="200" height="120"/>
	<rect id="_x37__1_" y="160" class="st1" width="200" height="120"/>
	<rect id="_x36_" x="480" y="320" class="st1" width="200" height="120"/>
	<rect id="_x35_" x="240" y="320" class="st1" width="200" height="120"/>
	<rect id="_x34__1_" x="360" y="160" class="st1" width="200" height="120"/>
	<rect id="_x33_" x="600" y="160" class="st1" width="200" height="120"/>
	<rect id="_x32_" x="840" y="160" class="st1" width="200" height="120"/>
	<rect id="_x31_" x="420" class="st1" width="200" height="120"/>
</g>
<g id="text">
	<g>
		<path class="st2" d="M895.5,238.5h1.8v5.3l5-5.3h2.3l-4.4,4.5l4.6,6h-2.2l-3.6-4.7l-1.6,1.7v3h-1.8V238.5z"/>
		<path class="st2" d="M906.4,238.5h1.8v5.3l5-5.3h2.3l-4.4,4.5l4.6,6h-2.2l-3.6-4.7l-1.6,1.7v3h-1.8V238.5z"/>
		<path class="st2" d="M921.7,238.5h7.8v1.7h-6v2.9h5.3v1.7h-5.3v4.3h-1.8V238.5z"/>
		<path class="st2" d="M930.9,245.1L930.9,245.1c0-2.3,1.8-4.2,4.2-4.2s4.2,1.8,4.2,4.1v0c0,2.3-1.8,4.1-4.2,4.1
			C932.7,249.2,930.9,247.3,930.9,245.1z M937.6,245.1L937.6,245.1c0-1.4-1-2.6-2.4-2.6c-1.5,0-2.4,1.1-2.4,2.5v0
			c0,1.4,1,2.6,2.4,2.6C936.6,247.6,937.6,246.5,937.6,245.1z"/>
		<path class="st2" d="M941.1,246.1v-5h1.8v4.5c0,1.2,0.6,1.9,1.7,1.9c1,0,1.8-0.7,1.8-2v-4.5h1.8v7.9h-1.8v-1.2
			c-0.5,0.7-1.2,1.4-2.5,1.4C942.2,249.2,941.1,248,941.1,246.1z"/>
		<path class="st2" d="M950.5,241.1h1.8v1.2c0.5-0.8,1.2-1.4,2.5-1.4c1.8,0,2.8,1.2,2.8,3v5h-1.8v-4.5c0-1.2-0.6-1.9-1.7-1.9
			c-1.1,0-1.8,0.7-1.8,2v4.5h-1.8V241.1z"/>
		<path class="st2" d="M959.4,245.1L959.4,245.1c0-2.7,1.8-4.1,3.7-4.1c1.3,0,2.1,0.7,2.7,1.4v-4.3h1.8V249h-1.8v-1.3
			c-0.6,0.8-1.4,1.5-2.7,1.5C961.2,249.2,959.4,247.7,959.4,245.1z M965.8,245.1L965.8,245.1c0-1.6-1.1-2.6-2.3-2.6
			c-1.2,0-2.3,1-2.3,2.5v0c0,1.5,1.1,2.5,2.3,2.5C964.7,247.6,965.8,246.6,965.8,245.1z"/>
		<path class="st2" d="M969.9,241.1h1.8v1.8c0.5-1.2,1.4-2,2.8-1.9v1.9h-0.1c-1.6,0-2.7,1-2.7,3.1v3h-1.8V241.1z"/>
		<path class="st2" d="M975.8,251l0.6-1.3c0.3,0.2,0.7,0.3,1.1,0.3c0.5,0,0.8-0.2,1.1-0.9l-3.3-7.9h1.9l2.3,5.9l2.1-5.9h1.9
			l-3.1,8.1c-0.6,1.6-1.3,2.2-2.6,2.2C976.9,251.4,976.4,251.3,975.8,251z"/>
	</g>
	<g>
		<path class="st2" d="M667.7,233.5h1.8v5.3l5-5.3h2.3l-4.4,4.5l4.6,6h-2.2l-3.6-4.7l-1.6,1.7v3h-1.8V233.5z"/>
		<path class="st2" d="M678.6,233.5h1.8v5.3l5-5.3h2.3l-4.4,4.5l4.6,6h-2.2l-3.6-4.7l-1.6,1.7v3h-1.8V233.5z"/>
		<path class="st2" d="M689.4,233.5h7.8v1.7h-6v2.9h5.3v1.7h-5.3v4.3h-1.8V233.5z"/>
		<path class="st2" d="M703,233.4h1.7l4.6,10.6h-2l-1.1-2.5h-5l-1.1,2.5h-1.9L703,233.4z M705.6,239.8l-1.8-4.2l-1.8,4.2H705.6z"/>
		<path class="st2" d="M711.1,233.5h4.7c1.3,0,2.4,0.4,3,1.1c0.6,0.6,0.9,1.3,0.9,2.3v0c0,1.7-1,2.8-2.5,3.2l2.8,4h-2.2l-2.6-3.7
			H713v3.7h-1.8V233.5z M715.7,238.7c1.3,0,2.2-0.7,2.2-1.8v0c0-1.1-0.8-1.7-2.2-1.7H713v3.5H715.7z"/>
		<path class="st2" d="M722,233.5h2l3.2,5l3.2-5h2V244h-1.8v-7.5l-3.3,4.9h-0.1l-3.3-4.9v7.5H722V233.5z"/>
	</g>
	<g>
		<path class="st3" d="M543.4,390.5h1.8v5.3l5-5.3h2.3l-4.4,4.5l4.6,6h-2.2l-3.6-4.7l-1.6,1.7v3h-1.8V390.5z"/>
		<path class="st3" d="M554.3,390.5h1.8v5.3l5-5.3h2.3l-4.4,4.5l4.6,6h-2.2l-3.6-4.7l-1.6,1.7v3h-1.8V390.5z"/>
		<path class="st3" d="M564.5,399.5l1.1-1.3c1,0.9,2,1.4,3.3,1.4c1.1,0,1.9-0.5,1.9-1.3v0c0-0.8-0.4-1.2-2.4-1.6
			c-2.2-0.5-3.5-1.2-3.5-3.1v0c0-1.8,1.5-3,3.6-3c1.5,0,2.7,0.5,3.8,1.3l-1,1.4c-0.9-0.7-1.9-1.1-2.8-1.1c-1.1,0-1.7,0.6-1.7,1.2v0
			c0,0.8,0.5,1.2,2.5,1.6c2.2,0.5,3.4,1.3,3.4,3.1v0c0,2-1.5,3.1-3.8,3.1C567.3,401.2,565.8,400.6,564.5,399.5z"/>
		<path class="st3" d="M575,398.8v-4.2h-1v-1.6h1v-2.2h1.8v2.2h2.1v1.6h-2.1v3.9c0,0.7,0.4,1,1,1c0.4,0,0.8-0.1,1.1-0.3v1.5
			c-0.5,0.3-1,0.4-1.6,0.4C575.9,401.1,575,400.5,575,398.8z"/>
		<path class="st3" d="M580.7,393.1h1.8v1.8c0.5-1.2,1.4-2,2.8-1.9v1.9h-0.1c-1.6,0-2.7,1-2.7,3.1v3h-1.8V393.1z"/>
		<path class="st3" d="M586.5,397.1L586.5,397.1c0-2.3,1.6-4.2,3.9-4.2c2.5,0,3.8,2,3.8,4.3c0,0.2,0,0.3,0,0.5h-5.8
			c0.2,1.3,1.1,2,2.3,2c0.9,0,1.5-0.3,2.1-0.9l1.1,0.9c-0.8,0.9-1.8,1.5-3.2,1.5C588.3,401.2,586.5,399.5,586.5,397.1z M592.4,396.5
			c-0.1-1.2-0.8-2.1-2-2.1c-1.1,0-1.9,0.9-2.1,2.1H592.4z"/>
		<path class="st3" d="M600.8,401v-1c-0.5,0.6-1.4,1.1-2.6,1.1c-1.5,0-2.8-0.9-2.8-2.4v0c0-1.8,1.4-2.6,3.2-2.6c1,0,1.6,0.1,2.2,0.3
			v-0.1c0-1.1-0.7-1.7-2-1.7c-0.9,0-1.5,0.2-2.3,0.5l-0.5-1.5c0.9-0.4,1.7-0.7,3-0.7c2.3,0,3.5,1.2,3.5,3.3v4.7H600.8z M600.9,397.7
			c-0.5-0.2-1.1-0.3-1.8-0.3c-1.1,0-1.8,0.5-1.8,1.2v0c0,0.8,0.7,1.2,1.5,1.2c1.2,0,2.1-0.7,2.1-1.7V397.7z"/>
		<path class="st3" d="M604.8,393.1h1.8v1.2c0.5-0.7,1.2-1.4,2.4-1.4c1.1,0,1.9,0.6,2.4,1.4c0.6-0.8,1.5-1.4,2.7-1.4
			c1.7,0,2.8,1.1,2.8,3v5.1H615v-4.5c0-1.3-0.6-1.9-1.6-1.9c-1,0-1.7,0.7-1.7,2v4.5h-1.8v-4.5c0-1.2-0.6-1.9-1.6-1.9s-1.7,0.8-1.7,2
			v4.5h-1.8V393.1z"/>
	</g>
	<g>
		<path class="st3" d="M320,390.5h1.8v5.3l5-5.3h2.3l-4.4,4.5l4.6,6h-2.2l-3.6-4.7l-1.6,1.7v3H320V390.5z"/>
		<path class="st3" d="M330.9,390.5h1.8v5.3l5-5.3h2.3l-4.4,4.5l4.6,6h-2.2l-3.6-4.7l-1.6,1.7v3h-1.8V390.5z"/>
		<path class="st3" d="M344.3,392.2H341v-1.7h8.5v1.7h-3.3v8.8h-1.9V392.2z"/>
		<path class="st3" d="M350.6,390.5h2l3.2,8.1l3.1-8.1h2l-4.4,10.6h-1.6L350.6,390.5z"/>
	</g>
	<g>
		<path class="st2" d="M444.9,233.5h1.8v5.3l5-5.3h2.3l-4.4,4.5l4.6,6h-2.2l-3.6-4.7l-1.6,1.7v3h-1.8V233.5z"/>
		<path class="st2" d="M455.7,233.5h1.8v5.3l5-5.3h2.3l-4.4,4.5l4.6,6h-2.2l-3.6-4.7l-1.6,1.7v3h-1.8V233.5z"/>
		<path class="st2" d="M465.7,233.5h2l3.2,8.1l3.1-8.1h2l-4.4,10.6h-1.6L465.7,233.5z"/>
	</g>
	<g>
		<path class="st2" d="M67.1,390.5h2l2.5,7.8l2.6-7.8h1.6l2.6,7.8l2.5-7.8h1.9l-3.7,10.6h-1.6l-2.6-7.5l-2.6,7.5h-1.6L67.1,390.5z"
			/>
		<path class="st2" d="M89.3,401v-1c-0.5,0.6-1.4,1.1-2.6,1.1c-1.5,0-2.8-0.9-2.8-2.4v0c0-1.8,1.4-2.6,3.2-2.6c1,0,1.6,0.1,2.2,0.3
			v-0.2c0-1.1-0.7-1.7-1.9-1.7c-0.9,0-1.5,0.2-2.3,0.5l-0.5-1.5c0.9-0.4,1.7-0.7,3-0.7c2.3,0,3.5,1.2,3.5,3.3v4.7H89.3z M89.3,397.7
			c-0.5-0.2-1.1-0.3-1.8-0.3c-1.1,0-1.8,0.5-1.8,1.2v0c0,0.8,0.7,1.2,1.5,1.2c1.2,0,2.1-0.7,2.1-1.7V397.7z"/>
		<path class="st2" d="M93.3,390.1h1.8V401h-1.8V390.1z"/>
		<path class="st2" d="M97.5,390.1h1.8v6.5l3.3-3.5h2.2l-3.1,3.2l3.3,4.7h-2.1l-2.4-3.4l-1.1,1.2v2.3h-1.8V390.1z"/>
		<path class="st2" d="M106.3,390.1h2v1.7h-2V390.1z M106.4,393.1h1.8v7.9h-1.8V393.1z"/>
		<path class="st2" d="M110.8,390.5h7.8v1.7h-5.9v2.7h5.3v1.6h-5.3v2.8h6v1.7h-7.9V390.5z"/>
	</g>
	<g>
		<path class="st2" d="M66.2,233.5h1.8v5.3l5-5.3h2.3L71,238l4.6,6h-2.2l-3.6-4.7l-1.6,1.7v3h-1.8V233.5z"/>
		<path class="st2" d="M77.1,233.5h1.8v5.3l5-5.3h2.3l-4.4,4.5l4.6,6h-2.2l-3.6-4.7l-1.6,1.7v3h-1.8V233.5z"/>
		<path class="st2" d="M88,233.5h4.7c1.2,0,2.1,0.3,2.7,0.9c0.5,0.5,0.7,1,0.7,1.7v0c0,1.3-0.7,1.9-1.5,2.3c1.2,0.4,2.1,1.1,2.1,2.6
			v0c0,1.9-1.5,2.9-3.9,2.9H88V233.5z M92.3,237.9c1.2,0,2-0.5,2-1.4v0c0-0.8-0.7-1.3-1.8-1.3h-2.7v2.8H92.3z M92.8,242.4
			c1.3,0,2-0.5,2-1.4v0c0-0.9-0.7-1.4-2.2-1.4h-2.9v2.9H92.8z"/>
		<path class="st2" d="M98.3,238.8L98.3,238.8c0-3,2.3-5.5,5.5-5.5c3.2,0,5.5,2.4,5.5,5.4v0c0,3-2.3,5.4-5.5,5.4
			C100.6,244.2,98.3,241.7,98.3,238.8z M107.4,238.8L107.4,238.8c0-2.1-1.5-3.8-3.6-3.8s-3.5,1.7-3.5,3.7v0c0,2,1.5,3.7,3.6,3.7
			S107.4,240.8,107.4,238.8z"/>
		<path class="st2" d="M114.6,238.7l-3.7-5.2h2.2l2.6,3.8l2.6-3.8h2.1l-3.7,5.1l3.8,5.4h-2.2l-2.8-4l-2.8,4h-2.1L114.6,238.7z"/>
	</g>
	<g>
		<path class="st4" d="M868.2,193h2.8l6.6,8.6V193h3v14H878l-6.8-8.9v8.9h-3V193z"/>
		<path class="st4" d="M883.1,201.7L883.1,201.7c0-3.1,2.2-5.6,5.3-5.6c3.6,0,5.2,2.8,5.2,5.8c0,0.2,0,0.5,0,0.8h-7.5
			c0.3,1.4,1.3,2.1,2.6,2.1c1,0,1.8-0.3,2.6-1.1l1.7,1.5c-1,1.2-2.4,2-4.4,2C885.5,207.2,883.1,205,883.1,201.7z M890.7,200.8
			c-0.2-1.4-1-2.3-2.3-2.3c-1.3,0-2.1,0.9-2.3,2.3H890.7z"/>
		<path class="st4" d="M895,196.3h3.1l1.7,6.5l2-6.5h2.6l2,6.6l1.8-6.5h3l-3.3,10.8h-2.7l-2.1-6.6l-2.1,6.6h-2.7L895,196.3z"/>
		<path class="st4" d="M919.4,193h6.5c1.6,0,2.9,0.4,3.7,1.2c0.6,0.6,1,1.4,1,2.4v0c0,1.6-0.8,2.5-1.8,3c1.6,0.6,2.6,1.6,2.6,3.4v0
			c0,2.6-2.1,3.8-5.2,3.8h-6.7V193z M925.3,198.7c1.4,0,2.2-0.4,2.2-1.5v0c0-0.9-0.7-1.4-2-1.4h-3v3H925.3z M926.1,204.3
			c1.4,0,2.2-0.5,2.2-1.5v0c0-0.9-0.7-1.5-2.3-1.5h-3.6v3.1H926.1z"/>
		<path class="st4" d="M933.5,203.2v-6.9h3v6c0,1.4,0.7,2.2,1.8,2.2s1.9-0.7,1.9-2.2v-6h3V207h-3v-1.5c-0.7,0.9-1.6,1.7-3.1,1.7
			C934.8,207.2,933.5,205.7,933.5,203.2z"/>
		<path class="st4" d="M945.2,205.6l1.3-2c1.2,0.8,2.4,1.3,3.4,1.3c0.9,0,1.3-0.3,1.3-0.8v0c0-0.7-1-0.9-2.2-1.2
			c-1.5-0.4-3.2-1.1-3.2-3.2v0c0-2.2,1.8-3.4,3.9-3.4c1.4,0,2.8,0.5,4,1.2l-1.2,2.1c-1.1-0.6-2.1-1-2.9-1c-0.7,0-1.1,0.3-1.1,0.7v0
			c0,0.6,1,0.9,2.2,1.3c1.5,0.5,3.2,1.2,3.2,3.2v0c0,2.4-1.8,3.5-4.1,3.5C948.3,207.2,946.6,206.7,945.2,205.6z"/>
		<path class="st4" d="M956.1,192.4h3.2v2.7h-3.2V192.4z M956.2,196.3h3V207h-3V196.3z"/>
		<path class="st4" d="M962.1,196.3h3v1.5c0.7-0.9,1.6-1.7,3.1-1.7c2.3,0,3.6,1.5,3.6,4v6.9h-3v-6c0-1.4-0.7-2.2-1.8-2.2
			c-1.2,0-1.9,0.7-1.9,2.2v6h-3V196.3z"/>
		<path class="st4" d="M974,201.7L974,201.7c0-3.1,2.2-5.6,5.3-5.6c3.6,0,5.2,2.8,5.2,5.8c0,0.2,0,0.5,0,0.8h-7.5
			c0.3,1.4,1.3,2.1,2.6,2.1c1,0,1.8-0.3,2.6-1.1l1.7,1.5c-1,1.2-2.4,2-4.4,2C976.4,207.2,974,205,974,201.7z M981.6,200.8
			c-0.2-1.4-1-2.3-2.3-2.3c-1.3,0-2.1,0.9-2.3,2.3H981.6z"/>
		<path class="st4" d="M986,205.6l1.3-2c1.2,0.8,2.4,1.3,3.4,1.3c0.9,0,1.3-0.3,1.3-0.8v0c0-0.7-1-0.9-2.2-1.2
			c-1.5-0.4-3.2-1.1-3.2-3.2v0c0-2.2,1.8-3.4,3.9-3.4c1.4,0,2.8,0.5,4,1.2l-1.2,2.1c-1.1-0.6-2.1-1-2.9-1c-0.7,0-1.1,0.3-1.1,0.7v0
			c0,0.6,1,0.9,2.2,1.3c1.5,0.5,3.2,1.2,3.2,3.2v0c0,2.4-1.8,3.5-4.1,3.5C989.1,207.2,987.4,206.7,986,205.6z"/>
		<path class="st4" d="M996,205.6l1.3-2c1.2,0.8,2.4,1.3,3.4,1.3c0.9,0,1.3-0.3,1.3-0.8v0c0-0.7-1-0.9-2.2-1.2
			c-1.5-0.4-3.2-1.1-3.2-3.2v0c0-2.2,1.8-3.4,3.9-3.4c1.4,0,2.8,0.5,4,1.2l-1.2,2.1c-1.1-0.6-2.1-1-2.9-1c-0.7,0-1.1,0.3-1.1,0.7v0
			c0,0.6,1,0.9,2.2,1.3c1.5,0.5,3.2,1.2,3.2,3.2v0c0,2.4-1.8,3.5-4.1,3.5C999.1,207.2,997.4,206.7,996,205.6z"/>
		<path class="st4" d="M886.6,213h3.1v14h-3.1V213z"/>
		<path class="st4" d="M892.8,216.3h3v1.5c0.7-0.9,1.6-1.7,3.1-1.7c2.3,0,3.6,1.5,3.6,4v6.9h-3v-6c0-1.4-0.7-2.2-1.8-2.2
			c-1.2,0-1.9,0.7-1.9,2.2v6h-3V216.3z"/>
		<path class="st4" d="M904.8,221.7L904.8,221.7c0-3.1,2.3-5.6,5.6-5.6c2,0,3.3,0.7,4.3,1.8l-1.9,2c-0.7-0.7-1.4-1.2-2.4-1.2
			c-1.5,0-2.6,1.3-2.6,2.9v0c0,1.6,1.1,3,2.7,3c1,0,1.7-0.4,2.5-1.1l1.8,1.8c-1,1.1-2.2,2-4.4,2
			C907.1,227.2,904.8,224.8,904.8,221.7z"/>
		<path class="st4" d="M916.6,223.2v-6.9h3v6c0,1.4,0.7,2.2,1.8,2.2s1.9-0.7,1.9-2.2v-6h3V227h-3v-1.5c-0.7,0.9-1.6,1.7-3.1,1.7
			C918,227.2,916.6,225.7,916.6,223.2z"/>
		<path class="st4" d="M932.2,225.6v1.4h-3v-14.6h3v5.4c0.7-1,1.8-1.7,3.3-1.7c2.5,0,4.9,2,4.9,5.5v0c0,3.6-2.3,5.5-4.9,5.5
			C933.9,227.2,932.9,226.5,932.2,225.6z M937.4,221.7L937.4,221.7c0-1.8-1.2-3-2.6-3c-1.4,0-2.6,1.2-2.6,3v0c0,1.8,1.2,3,2.6,3
			C936.2,224.6,937.4,223.5,937.4,221.7z"/>
		<path class="st4" d="M942,223.9L942,223.9c0-2.4,1.8-3.5,4.3-3.5c1.1,0,1.9,0.2,2.6,0.4v-0.2c0-1.3-0.8-2-2.3-2
			c-1.2,0-2,0.2-3,0.6L943,217c1.2-0.5,2.3-0.9,4.2-0.9c1.7,0,2.9,0.4,3.6,1.2c0.8,0.8,1.2,2,1.2,3.4v6.2H949v-1.2
			c-0.7,0.8-1.8,1.4-3.2,1.4C943.7,227.2,942,226,942,223.9z M949,223.2v-0.5c-0.5-0.2-1.2-0.4-1.9-0.4c-1.3,0-2.1,0.5-2.1,1.5v0
			c0,0.8,0.7,1.3,1.7,1.3C948.1,225.1,949,224.3,949,223.2z"/>
		<path class="st4" d="M955,224v-5.1h-1.3v-2.6h1.3v-2.7h3v2.7h2.5v2.6h-2.5v4.6c0,0.7,0.3,1,1,1c0.6,0,1.1-0.1,1.5-0.4v2.4
			c-0.6,0.4-1.4,0.6-2.4,0.6C956.3,227.2,955,226.4,955,224z"/>
		<path class="st4" d="M962.9,212.4h3.2v2.7h-3.2V212.4z M963,216.3h3V227h-3V216.3z"/>
		<path class="st4" d="M968.3,221.7L968.3,221.7c0-3.1,2.5-5.6,5.8-5.6c3.3,0,5.8,2.5,5.8,5.5v0c0,3.1-2.5,5.6-5.8,5.6
			C970.8,227.2,968.3,224.8,968.3,221.7z M976.9,221.7L976.9,221.7c0-1.6-1.1-3-2.8-3c-1.7,0-2.8,1.3-2.8,2.9v0c0,1.6,1.1,3,2.8,3
			C975.9,224.6,976.9,223.3,976.9,221.7z"/>
		<path class="st4" d="M982.1,216.3h3v1.5c0.7-0.9,1.6-1.7,3.1-1.7c2.3,0,3.6,1.5,3.6,4v6.9h-3v-6c0-1.4-0.7-2.2-1.8-2.2
			c-1.2,0-1.9,0.7-1.9,2.2v6h-3V216.3z"/>
	</g>
	<g>
		<path class="st4" d="M612.3,213L612.3,213c0-4,3-7.3,7.3-7.3c2.6,0,4.2,0.9,5.5,2.2l-2,2.3c-1.1-1-2.2-1.6-3.6-1.6
			c-2.4,0-4.1,2-4.1,4.4v0c0,2.4,1.7,4.4,4.1,4.4c1.6,0,2.6-0.6,3.7-1.6l2,2c-1.4,1.5-3,2.5-5.7,2.5
			C615.3,220.2,612.3,217.1,612.3,213z"/>
		<path class="st4" d="M626.8,214.7L626.8,214.7c0-3.1,2.5-5.6,5.8-5.6c3.3,0,5.8,2.5,5.8,5.5v0c0,3.1-2.5,5.6-5.8,5.6
			C629.3,220.2,626.8,217.8,626.8,214.7z M635.4,214.7L635.4,214.7c0-1.6-1.1-3-2.8-3c-1.7,0-2.8,1.3-2.8,2.9v0c0,1.6,1.1,3,2.8,3
			C634.4,217.6,635.4,216.3,635.4,214.7z"/>
		<path class="st4" d="M640.6,209.3h3v1.5c0.7-0.9,1.6-1.7,3.1-1.7c2.3,0,3.6,1.5,3.6,4v6.9h-3v-6c0-1.4-0.7-2.2-1.8-2.2
			c-1.2,0-1.9,0.7-1.9,2.2v6h-3V209.3z"/>
		<path class="st4" d="M653.6,217v-5.1h-1.3v-2.6h1.3v-2.7h3v2.7h2.5v2.6h-2.5v4.6c0,0.7,0.3,1,1,1c0.6,0,1.1-0.1,1.5-0.4v2.4
			c-0.6,0.4-1.4,0.6-2.4,0.6C654.8,220.2,653.6,219.4,653.6,217z"/>
		<path class="st4" d="M660.8,214.7L660.8,214.7c0-3.1,2.2-5.6,5.3-5.6c3.6,0,5.2,2.8,5.2,5.8c0,0.2,0,0.5,0,0.8h-7.5
			c0.3,1.4,1.3,2.1,2.6,2.1c1,0,1.8-0.3,2.6-1.1l1.7,1.5c-1,1.2-2.4,2-4.4,2C663.2,220.2,660.8,218,660.8,214.7z M668.4,213.8
			c-0.2-1.4-1-2.3-2.3-2.3c-1.3,0-2.1,0.9-2.3,2.3H668.4z"/>
		<path class="st4" d="M673.6,209.3h3v1.5c0.7-0.9,1.6-1.7,3.1-1.7c2.3,0,3.6,1.5,3.6,4v6.9h-3v-6c0-1.4-0.7-2.2-1.8-2.2
			c-1.2,0-1.9,0.7-1.9,2.2v6h-3V209.3z"/>
		<path class="st4" d="M686.6,217v-5.1h-1.3v-2.6h1.3v-2.7h3v2.7h2.5v2.6h-2.5v4.6c0,0.7,0.3,1,1,1c0.6,0,1.1-0.1,1.5-0.4v2.4
			c-0.6,0.4-1.4,0.6-2.4,0.6C687.8,220.2,686.6,219.4,686.6,217z"/>
		<path class="st4" d="M700.7,206h6.5c1.6,0,2.9,0.4,3.7,1.2c0.6,0.6,1,1.4,1,2.4v0c0,1.6-0.8,2.5-1.8,3c1.6,0.6,2.6,1.6,2.6,3.4v0
			c0,2.6-2.1,3.8-5.2,3.8h-6.7V206z M706.5,211.7c1.4,0,2.2-0.4,2.2-1.5v0c0-0.9-0.7-1.4-2-1.4h-3v3H706.5z M707.4,217.3
			c1.4,0,2.2-0.5,2.2-1.5v0c0-0.9-0.7-1.5-2.3-1.5h-3.6v3.1H707.4z"/>
		<path class="st4" d="M714.7,216.2v-6.9h3v6c0,1.4,0.7,2.2,1.8,2.2s1.9-0.7,1.9-2.2v-6h3V220h-3v-1.5c-0.7,0.9-1.6,1.7-3.1,1.7
			C716.1,220.2,714.7,218.7,714.7,216.2z"/>
		<path class="st4" d="M726.4,218.6l1.3-2c1.2,0.8,2.4,1.3,3.4,1.3c0.9,0,1.3-0.3,1.3-0.8v0c0-0.7-1-0.9-2.2-1.2
			c-1.5-0.4-3.2-1.1-3.2-3.2v0c0-2.2,1.8-3.4,3.9-3.4c1.4,0,2.8,0.5,4,1.2l-1.2,2.1c-1.1-0.6-2.1-1-2.9-1c-0.7,0-1.1,0.3-1.1,0.7v0
			c0,0.6,1,0.9,2.2,1.3c1.5,0.5,3.2,1.2,3.2,3.2v0c0,2.4-1.8,3.5-4.1,3.5C729.5,220.2,727.9,219.7,726.4,218.6z"/>
		<path class="st4" d="M737.4,205.4h3.2v2.7h-3.2V205.4z M737.5,209.3h3V220h-3V209.3z"/>
		<path class="st4" d="M743.4,209.3h3v1.5c0.7-0.9,1.6-1.7,3.1-1.7c2.3,0,3.6,1.5,3.6,4v6.9h-3v-6c0-1.4-0.7-2.2-1.8-2.2
			c-1.2,0-1.9,0.7-1.9,2.2v6h-3V209.3z"/>
		<path class="st4" d="M755.3,214.7L755.3,214.7c0-3.1,2.2-5.6,5.3-5.6c3.6,0,5.2,2.8,5.2,5.8c0,0.2,0,0.5,0,0.8h-7.5
			c0.3,1.4,1.3,2.1,2.6,2.1c1,0,1.8-0.3,2.6-1.1l1.7,1.5c-1,1.2-2.4,2-4.4,2C757.7,220.2,755.3,218,755.3,214.7z M762.9,213.8
			c-0.2-1.4-1-2.3-2.3-2.3c-1.3,0-2.1,0.9-2.3,2.3H762.9z"/>
		<path class="st4" d="M767.2,218.6l1.3-2c1.2,0.8,2.4,1.3,3.4,1.3c0.9,0,1.3-0.3,1.3-0.8v0c0-0.7-1-0.9-2.2-1.2
			c-1.5-0.4-3.2-1.1-3.2-3.2v0c0-2.2,1.8-3.4,3.9-3.4c1.4,0,2.8,0.5,4,1.2l-1.2,2.1c-1.1-0.6-2.1-1-2.9-1c-0.7,0-1.1,0.3-1.1,0.7v0
			c0,0.6,1,0.9,2.2,1.3c1.5,0.5,3.2,1.2,3.2,3.2v0c0,2.4-1.8,3.5-4.1,3.5C770.3,220.2,768.7,219.7,767.2,218.6z"/>
		<path class="st4" d="M777.3,218.6l1.3-2c1.2,0.8,2.4,1.3,3.4,1.3c0.9,0,1.3-0.3,1.3-0.8v0c0-0.7-1-0.9-2.2-1.2
			c-1.5-0.4-3.2-1.1-3.2-3.2v0c0-2.2,1.8-3.4,3.9-3.4c1.4,0,2.8,0.5,4,1.2l-1.2,2.1c-1.1-0.6-2.1-1-2.9-1c-0.7,0-1.1,0.3-1.1,0.7v0
			c0,0.6,1,0.9,2.2,1.3c1.5,0.5,3.2,1.2,3.2,3.2v0c0,2.4-1.8,3.5-4.1,3.5C780.4,220.2,778.7,219.7,777.3,218.6z"/>
	</g>
	<g>
		<path class="st4" d="M490.7,366.1h4.9c2.8,0,4.6,1.7,4.6,4.1v0c0,2.8-2.1,4.2-4.8,4.2h-2v3.6h-2.6V366.1z M495.4,372.1
			c1.3,0,2.1-0.8,2.1-1.8v0c0-1.2-0.8-1.8-2.1-1.8h-2v3.6H495.4z"/>
		<path class="st4" d="M501.9,365.6h2.6V378h-2.6V365.6z"/>
		<path class="st4" d="M506.4,375.4L506.4,375.4c0-2,1.5-2.9,3.7-2.9c0.9,0,1.6,0.2,2.2,0.4v-0.2c0-1.1-0.7-1.7-2-1.7
			c-1,0-1.7,0.2-2.5,0.5l-0.6-2c1-0.4,2-0.7,3.5-0.7c1.4,0,2.4,0.4,3.1,1c0.7,0.7,1,1.7,1,2.9v5.3h-2.5v-1c-0.6,0.7-1.5,1.2-2.8,1.2
			C507.8,378.2,506.4,377.2,506.4,375.4z M512.3,374.8v-0.5c-0.4-0.2-1-0.3-1.6-0.3c-1.1,0-1.8,0.4-1.8,1.3v0c0,0.7,0.6,1.1,1.4,1.1
			C511.5,376.4,512.3,375.7,512.3,374.8z"/>
		<path class="st4" d="M517.4,375.4v-4.3h-1.1v-2.2h1.1v-2.3h2.6v2.3h2.1v2.2H520v3.9c0,0.6,0.3,0.9,0.8,0.9c0.5,0,0.9-0.1,1.3-0.3
			v2.1c-0.5,0.3-1.2,0.5-2,0.5C518.5,378.2,517.4,377.5,517.4,375.4z"/>
		<path class="st4" d="M524.5,371.1h-1.1V369h1.1v-0.6c0-1,0.3-1.7,0.7-2.2c0.5-0.5,1.2-0.7,2.1-0.7c0.8,0,1.4,0.1,1.8,0.3v2.1
			c-0.4-0.1-0.7-0.2-1.2-0.2c-0.6,0-0.9,0.3-0.9,1v0.4h2.1v2.1h-2.1v6.9h-2.6V371.1z"/>
		<path class="st4" d="M530.1,373.5L530.1,373.5c0-2.7,2.1-4.8,4.9-4.8c2.8,0,4.9,2.1,4.9,4.7v0c0,2.6-2.1,4.7-4.9,4.7
			C532.2,378.2,530.1,376.1,530.1,373.5z M537.4,373.5L537.4,373.5c0-1.4-1-2.5-2.4-2.5c-1.5,0-2.4,1.1-2.4,2.5v0
			c0,1.3,1,2.5,2.4,2.5C536.5,376,537.4,374.8,537.4,373.5z"/>
		<path class="st4" d="M541.8,368.9h2.6v1.8c0.5-1.3,1.4-2.1,2.9-2v2.7h-0.1c-1.7,0-2.8,1-2.8,3.2v3.4h-2.6V368.9z"/>
		<path class="st4" d="M548.9,368.9h2.6v1.3c0.6-0.8,1.4-1.5,2.7-1.5c1.2,0,2.1,0.5,2.6,1.4c0.8-0.9,1.8-1.4,3-1.4
			c1.9,0,3.1,1.2,3.1,3.3v5.9h-2.6v-5.1c0-1.2-0.5-1.9-1.5-1.9s-1.6,0.6-1.6,1.9v5.1h-2.6v-5.1c0-1.2-0.5-1.9-1.5-1.9
			s-1.6,0.6-1.6,1.9v5.1h-2.6V368.9z"/>
		<path class="st4" d="M573.2,368.5h-3.6v-2.4h9.9v2.4h-3.6v9.5h-2.6V368.5z"/>
		<path class="st4" d="M580.7,373.5L580.7,373.5c0-2.6,1.9-4.8,4.5-4.8c3,0,4.4,2.4,4.4,4.9c0,0.2,0,0.4,0,0.7h-6.3
			c0.3,1.2,1.1,1.8,2.2,1.8c0.9,0,1.5-0.3,2.2-0.9l1.5,1.3c-0.8,1.1-2.1,1.7-3.7,1.7C582.8,378.2,580.7,376.3,580.7,373.5z
			 M587.2,372.7c-0.2-1.2-0.8-1.9-1.9-1.9c-1.1,0-1.8,0.8-2,1.9H587.2z"/>
		<path class="st4" d="M591.2,373.5L591.2,373.5c0-2.6,2-4.8,4.8-4.8c1.7,0,2.8,0.6,3.6,1.5l-1.6,1.7c-0.6-0.6-1.2-1-2.1-1
			c-1.3,0-2.2,1.1-2.2,2.5v0c0,1.4,0.9,2.5,2.3,2.5c0.9,0,1.5-0.4,2.1-1l1.5,1.5c-0.9,1-1.9,1.7-3.7,1.7
			C593.2,378.2,591.2,376.1,591.2,373.5z"/>
		<path class="st4" d="M601.3,365.6h2.6v4.6c0.6-0.8,1.4-1.5,2.7-1.5c2,0,3.1,1.3,3.1,3.4v5.9h-2.6v-5.1c0-1.2-0.6-1.9-1.6-1.9
			c-1,0-1.6,0.6-1.6,1.9v5.1h-2.6V365.6z"/>
		<path class="st4" d="M611.9,368.9h2.6v1.3c0.6-0.8,1.4-1.5,2.7-1.5c2,0,3.1,1.3,3.1,3.4v5.9h-2.6v-5.1c0-1.2-0.6-1.9-1.6-1.9
			c-1,0-1.6,0.6-1.6,1.9v5.1h-2.6V368.9z"/>
		<path class="st4" d="M622.1,373.5L622.1,373.5c0-2.7,2.1-4.8,4.9-4.8c2.8,0,4.9,2.1,4.9,4.7v0c0,2.6-2.1,4.7-4.9,4.7
			C624.1,378.2,622.1,376.1,622.1,373.5z M629.4,373.5L629.4,373.5c0-1.4-1-2.5-2.4-2.5c-1.5,0-2.4,1.1-2.4,2.5v0
			c0,1.3,1,2.5,2.4,2.5C628.5,376,629.4,374.8,629.4,373.5z"/>
		<path class="st4" d="M633.9,365.6h2.6V378h-2.6V365.6z"/>
		<path class="st4" d="M638.5,373.5L638.5,373.5c0-2.7,2.1-4.8,4.9-4.8c2.8,0,4.9,2.1,4.9,4.7v0c0,2.6-2.1,4.7-4.9,4.7
			C640.6,378.2,638.5,376.1,638.5,373.5z M645.8,373.5L645.8,373.5c0-1.4-1-2.5-2.4-2.5c-1.5,0-2.4,1.1-2.4,2.5v0
			c0,1.3,1,2.5,2.4,2.5C644.9,376,645.8,374.8,645.8,373.5z"/>
		<path class="st4" d="M650.3,379.8l0.9-1.9c0.9,0.5,1.9,0.8,3.1,0.8c1.8,0,2.6-0.9,2.6-2.5v-0.4c-0.8,0.9-1.6,1.5-3,1.5
			c-2.1,0-4-1.5-4-4.2v0c0-2.7,2-4.3,4-4.3c1.4,0,2.2,0.6,2.9,1.4v-1.2h2.6v7.1c0,1.6-0.4,2.8-1.2,3.6c-0.8,0.8-2.2,1.2-3.9,1.2
			C652.8,380.8,651.4,380.4,650.3,379.8z M656.8,373L656.8,373c0-1.3-1-2.1-2.2-2.1s-2.2,0.9-2.2,2.1v0c0,1.3,1,2.1,2.2,2.1
			S656.8,374.2,656.8,373z"/>
		<path class="st4" d="M661.6,380.1l0.9-1.9c0.3,0.2,0.8,0.4,1.1,0.4c0.4,0,0.7-0.1,0.9-0.6l-3.6-9.1h2.7l2.1,6.2l2-6.2h2.7
			l-3.5,9.3c-0.7,1.9-1.4,2.5-3,2.5C662.9,380.8,662.2,380.5,661.6,380.1z"/>
	</g>
	<g>
		<path class="st4" d="M260.1,372.1L260.1,372.1c0-3.4,2.7-6.2,6.3-6.2c3.7,0,6.3,2.7,6.3,6.1v0c0,3.4-2.7,6.2-6.3,6.2
			C262.7,378.2,260.1,375.5,260.1,372.1z M270,372.1L270,372.1c0-2.1-1.5-3.8-3.6-3.8c-2.1,0-3.6,1.7-3.6,3.7v0c0,2,1.5,3.7,3.6,3.7
			S270,374.1,270,372.1z"/>
		<path class="st4" d="M277.8,368.5h-3.6v-2.4h9.9v2.4h-3.6v9.5h-2.6V368.5z"/>
		<path class="st4" d="M288.9,368.5h-3.6v-2.4h9.9v2.4h-3.6v9.5h-2.6V368.5z"/>
		<path class="st4" d="M301.2,366.1h2.9l3.1,8.4l3.1-8.4h2.8l-4.8,12H306L301.2,366.1z"/>
		<path class="st4" d="M314.7,365.6h2.7v2.3h-2.7V365.6z M314.8,368.9h2.6v9.1h-2.6V368.9z"/>
		<path class="st4" d="M319.4,373.5L319.4,373.5c0-3.1,2-4.7,4.1-4.7c1.4,0,2.2,0.6,2.8,1.4v-4.5h2.6V378h-2.6v-1.3
			c-0.6,0.8-1.5,1.5-2.8,1.5C321.4,378.2,319.4,376.5,319.4,373.5z M326.4,373.5L326.4,373.5c0-1.5-1-2.5-2.2-2.5
			c-1.2,0-2.2,1-2.2,2.5v0c0,1.5,1,2.5,2.2,2.5C325.4,376,326.4,375,326.4,373.5z"/>
		<path class="st4" d="M330.8,373.5L330.8,373.5c0-2.6,1.9-4.8,4.5-4.8c3,0,4.4,2.4,4.4,4.9c0,0.2,0,0.4,0,0.7h-6.3
			c0.3,1.2,1.1,1.8,2.2,1.8c0.9,0,1.5-0.3,2.2-0.9l1.5,1.3c-0.9,1.1-2.1,1.7-3.7,1.7C332.9,378.2,330.8,376.3,330.8,373.5z
			 M337.3,372.7c-0.2-1.2-0.8-1.9-1.9-1.9c-1.1,0-1.8,0.8-2,1.9H337.3z"/>
		<path class="st4" d="M341.3,373.5L341.3,373.5c0-2.7,2.1-4.8,4.9-4.8c2.8,0,4.9,2.1,4.9,4.7v0c0,2.6-2.1,4.7-4.9,4.7
			C343.4,378.2,341.3,376.1,341.3,373.5z M348.6,373.5L348.6,373.5c0-1.4-1-2.5-2.4-2.5c-1.5,0-2.4,1.1-2.4,2.5v0
			c0,1.3,1,2.5,2.4,2.5C347.7,376,348.6,374.8,348.6,373.5z"/>
		<path class="st4" d="M357.6,376.3l1.5-1.9c1.1,0.9,2.2,1.4,3.6,1.4c1.1,0,1.7-0.4,1.7-1.1v0c0-0.7-0.4-1-2.4-1.5
			c-2.4-0.6-3.9-1.3-3.9-3.6v0c0-2.2,1.7-3.6,4.2-3.6c1.7,0,3.2,0.5,4.4,1.5l-1.4,2c-1.1-0.7-2.1-1.2-3.1-1.2c-1,0-1.5,0.5-1.5,1v0
			c0,0.8,0.5,1,2.6,1.6c2.4,0.6,3.8,1.5,3.8,3.6v0c0,2.4-1.8,3.7-4.4,3.7C360.8,378.2,359,377.5,357.6,376.3z"/>
		<path class="st4" d="M368.5,373.5L368.5,373.5c0-2.6,1.9-4.8,4.5-4.8c3,0,4.4,2.4,4.4,4.9c0,0.2,0,0.4,0,0.7h-6.3
			c0.3,1.2,1.1,1.8,2.2,1.8c0.9,0,1.5-0.3,2.2-0.9l1.5,1.3c-0.9,1.1-2.1,1.7-3.7,1.7C370.6,378.2,368.5,376.3,368.5,373.5z
			 M375,372.7c-0.2-1.2-0.8-1.9-1.9-1.9c-1.1,0-1.8,0.8-2,1.9H375z"/>
		<path class="st4" d="M379.4,368.9h2.6v1.8c0.5-1.3,1.4-2.1,2.9-2v2.7h-0.1c-1.7,0-2.8,1-2.8,3.2v3.4h-2.6V368.9z"/>
		<path class="st4" d="M385.7,368.9h2.7l2,6.1l2.1-6.1h2.7l-3.6,9.2h-2.3L385.7,368.9z"/>
		<path class="st4" d="M396.8,365.6h2.7v2.3h-2.7V365.6z M396.8,368.9h2.6v9.1h-2.6V368.9z"/>
		<path class="st4" d="M401.4,373.5L401.4,373.5c0-2.6,2-4.8,4.8-4.8c1.7,0,2.8,0.6,3.6,1.5l-1.6,1.7c-0.6-0.6-1.2-1-2.1-1
			c-1.3,0-2.2,1.1-2.2,2.5v0c0,1.4,0.9,2.5,2.3,2.5c0.9,0,1.5-0.4,2.1-1l1.5,1.5c-0.9,1-1.9,1.7-3.7,1.7
			C403.4,378.2,401.4,376.1,401.4,373.5z"/>
		<path class="st4" d="M411.1,373.5L411.1,373.5c0-2.6,1.9-4.8,4.5-4.8c3,0,4.4,2.4,4.4,4.9c0,0.2,0,0.4,0,0.7h-6.3
			c0.3,1.2,1.1,1.8,2.2,1.8c0.9,0,1.5-0.3,2.2-0.9l1.5,1.3c-0.9,1.1-2.1,1.7-3.7,1.7C413.1,378.2,411.1,376.3,411.1,373.5z
			 M417.5,372.7c-0.2-1.2-0.8-1.9-1.9-1.9c-1.1,0-1.8,0.8-2,1.9H417.5z"/>
	</g>
	<g>
		<path class="st4" d="M383.6,206h3.4l3.7,9.9l3.7-9.9h3.3l-5.7,14.1h-2.7L383.6,206z"/>
		<path class="st4" d="M399.5,205.4h3.2v2.7h-3.2V205.4z M399.6,209.3h3V220h-3V209.3z"/>
		<path class="st4" d="M405,214.7L405,214.7c0-3.6,2.3-5.6,4.9-5.6c1.6,0,2.6,0.7,3.3,1.6v-5.3h3V220h-3v-1.5
			c-0.7,1-1.8,1.7-3.3,1.7C407.4,220.2,405,218.2,405,214.7z M413.3,214.7L413.3,214.7c0-1.8-1.2-3-2.6-3s-2.6,1.2-2.6,3v0
			c0,1.8,1.2,3,2.6,3S413.3,216.4,413.3,214.7z"/>
		<path class="st4" d="M418.5,214.7L418.5,214.7c0-3.1,2.2-5.6,5.3-5.6c3.6,0,5.2,2.8,5.2,5.8c0,0.2,0,0.5,0,0.8h-7.5
			c0.3,1.4,1.3,2.1,2.6,2.1c1,0,1.8-0.3,2.6-1.1l1.7,1.5c-1,1.2-2.4,2-4.4,2C420.8,220.2,418.5,218,418.5,214.7z M426,213.8
			c-0.2-1.4-1-2.3-2.3-2.3c-1.3,0-2.1,0.9-2.3,2.3H426z"/>
		<path class="st4" d="M430.7,214.7L430.7,214.7c0-3.1,2.5-5.6,5.8-5.6c3.3,0,5.8,2.5,5.8,5.5v0c0,3.1-2.5,5.6-5.8,5.6
			C433.2,220.2,430.7,217.8,430.7,214.7z M439.3,214.7L439.3,214.7c0-1.6-1.1-3-2.8-3c-1.7,0-2.8,1.3-2.8,2.9v0c0,1.6,1.1,3,2.8,3
			C438.3,217.6,439.3,216.3,439.3,214.7z"/>
		<path class="st4" d="M450.8,206h6.5c1.6,0,2.9,0.4,3.7,1.2c0.6,0.6,1,1.4,1,2.4v0c0,1.6-0.8,2.5-1.8,3c1.6,0.6,2.6,1.6,2.6,3.4v0
			c0,2.6-2.1,3.8-5.2,3.8h-6.7V206z M456.7,211.7c1.4,0,2.2-0.4,2.2-1.5v0c0-0.9-0.7-1.4-2-1.4h-3v3H456.7z M457.5,217.3
			c1.4,0,2.2-0.5,2.2-1.5v0c0-0.9-0.7-1.5-2.3-1.5h-3.6v3.1H457.5z"/>
		<path class="st4" d="M464.9,216.2v-6.9h3v6c0,1.4,0.7,2.2,1.8,2.2c1.2,0,1.9-0.7,1.9-2.2v-6h3V220h-3v-1.5
			c-0.7,0.9-1.6,1.7-3.1,1.7C466.2,220.2,464.9,218.7,464.9,216.2z"/>
		<path class="st4" d="M476.6,218.6l1.3-2c1.2,0.8,2.4,1.3,3.4,1.3c0.9,0,1.3-0.3,1.3-0.8v0c0-0.7-1-0.9-2.2-1.2
			c-1.5-0.4-3.2-1.1-3.2-3.2v0c0-2.2,1.8-3.4,3.9-3.4c1.4,0,2.8,0.5,4,1.2l-1.2,2.1c-1.1-0.6-2.1-1-2.9-1c-0.7,0-1.1,0.3-1.1,0.7v0
			c0,0.6,1,0.9,2.2,1.3c1.5,0.5,3.2,1.2,3.2,3.2v0c0,2.4-1.8,3.5-4.1,3.5C479.7,220.2,478,219.7,476.6,218.6z"/>
		<path class="st4" d="M487.5,205.4h3.2v2.7h-3.2V205.4z M487.6,209.3h3V220h-3V209.3z"/>
		<path class="st4" d="M493.5,209.3h3v1.5c0.7-0.9,1.6-1.7,3.1-1.7c2.3,0,3.6,1.5,3.6,4v6.9h-3v-6c0-1.4-0.7-2.2-1.8-2.2
			s-1.9,0.7-1.9,2.2v6h-3V209.3z"/>
		<path class="st4" d="M505.4,214.7L505.4,214.7c0-3.1,2.2-5.6,5.3-5.6c3.6,0,5.2,2.8,5.2,5.8c0,0.2,0,0.5,0,0.8h-7.5
			c0.3,1.4,1.3,2.1,2.6,2.1c1,0,1.8-0.3,2.6-1.1l1.7,1.5c-1,1.2-2.4,2-4.4,2C507.8,220.2,505.4,218,505.4,214.7z M513,213.8
			c-0.2-1.4-1-2.3-2.3-2.3c-1.3,0-2.1,0.9-2.3,2.3H513z"/>
		<path class="st4" d="M517.4,218.6l1.3-2c1.2,0.8,2.4,1.3,3.4,1.3c0.9,0,1.3-0.3,1.3-0.8v0c0-0.7-1-0.9-2.2-1.2
			c-1.5-0.4-3.2-1.1-3.2-3.2v0c0-2.2,1.8-3.4,3.9-3.4c1.4,0,2.8,0.5,4,1.2l-1.2,2.1c-1.1-0.6-2.1-1-2.9-1c-0.7,0-1.1,0.3-1.1,0.7v0
			c0,0.6,1,0.9,2.2,1.3c1.5,0.5,3.2,1.2,3.2,3.2v0c0,2.4-1.8,3.5-4.1,3.5C520.5,220.2,518.8,219.7,517.4,218.6z"/>
		<path class="st4" d="M527.4,218.6l1.3-2c1.2,0.8,2.4,1.3,3.4,1.3c0.9,0,1.3-0.3,1.3-0.8v0c0-0.7-1-0.9-2.2-1.2
			c-1.5-0.4-3.2-1.1-3.2-3.2v0c0-2.2,1.8-3.4,3.9-3.4c1.4,0,2.8,0.5,4,1.2l-1.2,2.1c-1.1-0.6-2.1-1-2.9-1c-0.7,0-1.1,0.3-1.1,0.7v0
			c0,0.6,1,0.9,2.2,1.3c1.5,0.5,3.2,1.2,3.2,3.2v0c0,2.4-1.8,3.5-4.1,3.5C530.5,220.2,528.8,219.7,527.4,218.6z"/>
	</g>
	<g>
		<path class="st4" d="M24,368.5h-3.6v-2.4h9.9v2.4h-3.6v9.5H24V368.5z"/>
		<path class="st4" d="M32.1,365.6h2.7v2.3h-2.7V365.6z M32.1,368.9h2.6v9.1h-2.6V368.9z"/>
		<path class="st4" d="M36.7,373.5L36.7,373.5c0-2.6,2-4.8,4.8-4.8c1.7,0,2.8,0.6,3.6,1.5l-1.6,1.7c-0.6-0.6-1.2-1-2.1-1
			c-1.3,0-2.2,1.1-2.2,2.5v0c0,1.4,0.9,2.5,2.3,2.5c0.9,0,1.5-0.4,2.1-1l1.5,1.5c-0.9,1-1.9,1.7-3.7,1.7
			C38.7,378.2,36.7,376.1,36.7,373.5z"/>
		<path class="st4" d="M46.9,365.6h2.6v6.6l3-3.3h3.1l-3.5,3.6l3.6,5.5h-3l-2.4-3.7l-0.9,1v2.8h-2.6V365.6z"/>
		<path class="st4" d="M56.5,373.5L56.5,373.5c0-2.6,1.9-4.8,4.5-4.8c3,0,4.4,2.4,4.4,4.9c0,0.2,0,0.4,0,0.7H59
			c0.3,1.2,1.1,1.8,2.2,1.8c0.9,0,1.5-0.3,2.2-0.9l1.5,1.3c-0.9,1.1-2.1,1.7-3.7,1.7C58.5,378.2,56.5,376.3,56.5,373.5z M62.9,372.7
			c-0.2-1.2-0.8-1.9-1.9-1.9c-1.1,0-1.8,0.8-2,1.9H62.9z"/>
		<path class="st4" d="M67.8,375.4v-4.3h-1.1v-2.2h1.1v-2.3h2.6v2.3h2.1v2.2h-2.1v3.9c0,0.6,0.3,0.9,0.8,0.9c0.5,0,0.9-0.1,1.3-0.3
			v2.1c-0.5,0.3-1.2,0.5-2,0.5C68.8,378.2,67.8,377.5,67.8,375.4z"/>
		<path class="st4" d="M74.5,365.6h2.7v2.3h-2.7V365.6z M74.5,368.9h2.6v9.1h-2.6V368.9z"/>
		<path class="st4" d="M79.5,368.9h2.6v1.3c0.6-0.8,1.4-1.5,2.7-1.5c2,0,3.1,1.3,3.1,3.4v5.9h-2.6v-5.1c0-1.2-0.6-1.9-1.6-1.9
			s-1.6,0.6-1.6,1.9v5.1h-2.6V368.9z"/>
		<path class="st4" d="M90.2,379.8l0.9-1.9c0.9,0.5,1.9,0.8,3.1,0.8c1.8,0,2.6-0.8,2.6-2.5v-0.4c-0.8,0.9-1.6,1.5-3,1.5
			c-2.1,0-4-1.5-4-4.2v0c0-2.7,2-4.3,4-4.3c1.4,0,2.2,0.6,2.9,1.4v-1.2h2.6v7.1c0,1.6-0.4,2.8-1.2,3.6c-0.9,0.8-2.2,1.2-3.9,1.2
			C92.7,380.8,91.3,380.4,90.2,379.8z M96.7,373L96.7,373c0-1.3-1-2.1-2.2-2.1s-2.2,0.9-2.2,2.1v0c0,1.3,1,2.1,2.2,2.1
			S96.7,374.2,96.7,373z"/>
		<path class="st4" d="M107,366.1h5.5c1.4,0,2.4,0.4,3.1,1.1c0.5,0.5,0.8,1.2,0.8,2v0c0,1.3-0.7,2.1-1.6,2.6
			c1.4,0.5,2.2,1.3,2.2,2.9v0c0,2.2-1.8,3.3-4.5,3.3H107V366.1z M111.9,370.9c1.2,0,1.9-0.4,1.9-1.3v0c0-0.8-0.6-1.2-1.7-1.2h-2.6
			v2.5H111.9z M112.6,375.7c1.2,0,1.9-0.4,1.9-1.3v0c0-0.8-0.6-1.3-1.9-1.3h-3v2.6H112.6z"/>
		<path class="st4" d="M118.9,374.8v-5.9h2.6v5.1c0,1.2,0.6,1.9,1.6,1.9s1.6-0.6,1.6-1.9v-5.1h2.6v9.1h-2.6v-1.3
			c-0.6,0.8-1.4,1.5-2.7,1.5C120,378.2,118.9,376.9,118.9,374.8z"/>
		<path class="st4" d="M128.8,376.8l1.1-1.7c1,0.7,2,1.1,2.9,1.1c0.7,0,1.1-0.3,1.1-0.7v0c0-0.6-0.9-0.7-1.9-1.1
			c-1.3-0.4-2.7-1-2.7-2.7v0c0-1.9,1.5-2.9,3.3-2.9c1.2,0,2.4,0.4,3.4,1.1l-1,1.8c-0.9-0.5-1.8-0.8-2.5-0.8c-0.6,0-1,0.3-1,0.6v0
			c0,0.5,0.9,0.7,1.9,1.1c1.3,0.4,2.8,1,2.8,2.7v0c0,2-1.5,2.9-3.5,2.9C131.5,378.2,130.1,377.7,128.8,376.8z"/>
		<path class="st4" d="M138.1,365.6h2.7v2.3h-2.7V365.6z M138.2,368.9h2.6v9.1h-2.6V368.9z"/>
		<path class="st4" d="M143.2,368.9h2.6v1.3c0.6-0.8,1.4-1.5,2.7-1.5c2,0,3.1,1.3,3.1,3.4v5.9H149v-5.1c0-1.2-0.6-1.9-1.6-1.9
			s-1.6,0.6-1.6,1.9v5.1h-2.6V368.9z"/>
		<path class="st4" d="M153.4,373.5L153.4,373.5c0-2.6,1.9-4.8,4.5-4.8c3,0,4.4,2.4,4.4,4.9c0,0.2,0,0.4,0,0.7h-6.3
			c0.3,1.2,1.1,1.8,2.2,1.8c0.9,0,1.5-0.3,2.2-0.9l1.5,1.3c-0.9,1.1-2.1,1.7-3.7,1.7C155.4,378.2,153.4,376.3,153.4,373.5z
			 M159.8,372.7c-0.2-1.2-0.8-1.9-1.9-1.9c-1.1,0-1.8,0.8-2,1.9H159.8z"/>
		<path class="st4" d="M163.5,376.8l1.1-1.7c1,0.7,2,1.1,2.9,1.1c0.7,0,1.1-0.3,1.1-0.7v0c0-0.6-0.9-0.7-1.9-1.1
			c-1.3-0.4-2.7-1-2.7-2.7v0c0-1.9,1.5-2.9,3.3-2.9c1.2,0,2.4,0.4,3.4,1.1l-1,1.8c-0.9-0.5-1.8-0.8-2.5-0.8c-0.6,0-1,0.3-1,0.6v0
			c0,0.5,0.9,0.7,1.9,1.1c1.3,0.4,2.8,1,2.8,2.7v0c0,2-1.5,2.9-3.5,2.9C166.2,378.2,164.7,377.7,163.5,376.8z"/>
		<path class="st4" d="M172.1,376.8l1.1-1.7c1,0.7,2,1.1,2.9,1.1c0.7,0,1.1-0.3,1.1-0.7v0c0-0.6-0.9-0.7-1.9-1.1
			c-1.3-0.4-2.7-1-2.7-2.7v0c0-1.9,1.5-2.9,3.3-2.9c1.2,0,2.4,0.4,3.4,1.1l-1,1.8c-0.9-0.5-1.8-0.8-2.5-0.8c-0.6,0-1,0.3-1,0.6v0
			c0,0.5,0.9,0.7,1.9,1.1c1.3,0.4,2.8,1,2.8,2.7v0c0,2-1.5,2.9-3.5,2.9C174.7,378.2,173.3,377.7,172.1,376.8z"/>
	</g>
	<g>
		<path class="st4" d="M26.1,206h3.3l3.7,5.9l3.7-5.9h3.3v14h-3.1v-9.1l-3.9,6h-0.1l-3.9-5.9v9.1h-3V206z"/>
		<path class="st4" d="M43.1,216.2v-6.9h3v6c0,1.4,0.7,2.2,1.8,2.2c1.2,0,1.9-0.7,1.9-2.2v-6h3V220h-3v-1.5
			c-0.7,0.9-1.6,1.7-3.1,1.7C44.4,220.2,43.1,218.7,43.1,216.2z"/>
		<path class="st4" d="M54.8,218.6l1.3-2c1.2,0.8,2.4,1.3,3.4,1.3c0.9,0,1.3-0.3,1.3-0.8v0c0-0.7-1-0.9-2.2-1.2
			c-1.5-0.4-3.2-1.1-3.2-3.2v0c0-2.2,1.8-3.4,3.9-3.4c1.4,0,2.8,0.5,4,1.2l-1.2,2.1c-1.1-0.6-2.1-1-2.9-1c-0.7,0-1.1,0.3-1.1,0.7v0
			c0,0.6,1,0.9,2.2,1.3c1.5,0.5,3.2,1.2,3.2,3.2v0c0,2.4-1.8,3.5-4.1,3.5C57.9,220.2,56.2,219.7,54.8,218.6z"/>
		<path class="st4" d="M65.7,205.4h3.2v2.7h-3.2V205.4z M65.8,209.3h3V220h-3V209.3z"/>
		<path class="st4" d="M71.2,214.7L71.2,214.7c0-3.1,2.3-5.6,5.6-5.6c2,0,3.3,0.7,4.3,1.8l-1.9,2c-0.7-0.7-1.4-1.2-2.4-1.2
			c-1.5,0-2.6,1.3-2.6,2.9v0c0,1.6,1.1,3,2.7,3c1,0,1.7-0.4,2.5-1.1l1.8,1.8c-1,1.1-2.2,2-4.4,2C73.6,220.2,71.2,217.8,71.2,214.7z"
			/>
		<path class="st4" d="M89.5,206H96c1.6,0,2.9,0.4,3.7,1.2c0.6,0.6,1,1.4,1,2.4v0c0,1.6-0.8,2.5-1.8,3c1.6,0.6,2.6,1.6,2.6,3.4v0
			c0,2.6-2.1,3.8-5.2,3.8h-6.7V206z M95.3,211.7c1.4,0,2.2-0.4,2.2-1.5v0c0-0.9-0.7-1.4-2-1.4h-3v3H95.3z M96.1,217.3
			c1.4,0,2.2-0.5,2.2-1.5v0c0-0.9-0.7-1.5-2.3-1.5h-3.6v3.1H96.1z"/>
		<path class="st4" d="M103.5,216.2v-6.9h3v6c0,1.4,0.7,2.2,1.8,2.2c1.2,0,1.9-0.7,1.9-2.2v-6h3V220h-3v-1.5
			c-0.7,0.9-1.6,1.7-3.1,1.7C104.8,220.2,103.5,218.7,103.5,216.2z"/>
		<path class="st4" d="M115.2,218.6l1.3-2c1.2,0.8,2.4,1.3,3.4,1.3c0.9,0,1.3-0.3,1.3-0.8v0c0-0.7-1-0.9-2.2-1.2
			c-1.5-0.4-3.2-1.1-3.2-3.2v0c0-2.2,1.8-3.4,3.9-3.4c1.4,0,2.8,0.5,4,1.2l-1.2,2.1c-1.1-0.6-2.1-1-2.9-1c-0.7,0-1.1,0.3-1.1,0.7v0
			c0,0.6,1,0.9,2.2,1.3c1.5,0.5,3.2,1.2,3.2,3.2v0c0,2.4-1.8,3.5-4.1,3.5C118.3,220.2,116.6,219.7,115.2,218.6z"/>
		<path class="st4" d="M126.1,205.4h3.2v2.7h-3.2V205.4z M126.2,209.3h3V220h-3V209.3z"/>
		<path class="st4" d="M132.1,209.3h3v1.5c0.7-0.9,1.6-1.7,3.1-1.7c2.3,0,3.6,1.5,3.6,4v6.9h-3v-6c0-1.4-0.7-2.2-1.8-2.2
			s-1.9,0.7-1.9,2.2v6h-3V209.3z"/>
		<path class="st4" d="M144,214.7L144,214.7c0-3.1,2.2-5.6,5.3-5.6c3.6,0,5.2,2.8,5.2,5.8c0,0.2,0,0.5,0,0.8h-7.5
			c0.3,1.4,1.3,2.1,2.6,2.1c1,0,1.8-0.3,2.6-1.1l1.7,1.5c-1,1.2-2.4,2-4.4,2C146.4,220.2,144,218,144,214.7z M151.6,213.8
			c-0.2-1.4-1-2.3-2.3-2.3c-1.3,0-2.1,0.9-2.3,2.3H151.6z"/>
		<path class="st4" d="M156,218.6l1.3-2c1.2,0.8,2.4,1.3,3.4,1.3c0.9,0,1.3-0.3,1.3-0.8v0c0-0.7-1-0.9-2.2-1.2
			c-1.5-0.4-3.2-1.1-3.2-3.2v0c0-2.2,1.8-3.4,3.9-3.4c1.4,0,2.8,0.5,4,1.2l-1.2,2.1c-1.1-0.6-2.1-1-2.9-1c-0.7,0-1.1,0.3-1.1,0.7v0
			c0,0.6,1,0.9,2.2,1.3c1.5,0.5,3.2,1.2,3.2,3.2v0c0,2.4-1.8,3.5-4.1,3.5C159.1,220.2,157.4,219.7,156,218.6z"/>
		<path class="st4" d="M166,218.6l1.3-2c1.2,0.8,2.4,1.3,3.4,1.3c0.9,0,1.3-0.3,1.3-0.8v0c0-0.7-1-0.9-2.2-1.2
			c-1.5-0.4-3.2-1.1-3.2-3.2v0c0-2.2,1.8-3.4,3.9-3.4c1.4,0,2.8,0.5,4,1.2l-1.2,2.1c-1.1-0.6-2.1-1-2.9-1c-0.7,0-1.1,0.3-1.1,0.7v0
			c0,0.6,1,0.9,2.2,1.3c1.5,0.5,3.2,1.2,3.2,3.2v0c0,2.4-1.8,3.5-4.1,3.5C169.1,220.2,167.4,219.7,166,218.6z"/>
	</g>
	<g>
		<path class="st4" d="M449.4,55h3.1v6.1l5.7-6.1h3.7l-5.7,5.9l6,8.1h-3.7l-4.3-6l-1.6,1.7V69h-3.1V55z"/>
		<path class="st4" d="M464,55h3.1v6.1l5.7-6.1h3.7l-5.7,5.9l6,8.1H473l-4.3-6l-1.6,1.7V69H464V55z"/>
		<path class="st4" d="M478.6,55h6.5c1.6,0,2.9,0.4,3.7,1.2c0.6,0.6,1,1.4,1,2.4v0c0,1.6-0.8,2.5-1.8,3c1.6,0.6,2.6,1.6,2.6,3.4v0
			c0,2.6-2.1,3.8-5.2,3.8h-6.7V55z M484.4,60.7c1.4,0,2.2-0.4,2.2-1.5v0c0-0.9-0.7-1.4-2-1.4h-3v3H484.4z M485.3,66.3
			c1.4,0,2.2-0.5,2.2-1.5v0c0-0.9-0.7-1.5-2.3-1.5h-3.6v3.1H485.3z"/>
		<path class="st4" d="M492.4,62L492.4,62c0-4,3.1-7.3,7.5-7.3c4.3,0,7.4,3.2,7.4,7.2v0c0,4-3.1,7.2-7.5,7.2S492.4,66,492.4,62z
			 M504.1,62L504.1,62c0-2.4-1.8-4.4-4.2-4.4s-4.2,2-4.2,4.4v0c0,2.4,1.8,4.4,4.2,4.4S504.1,64.4,504.1,62z"/>
		<path class="st4" d="M513.9,61.9l-4.7-6.9h3.6l2.9,4.5l3-4.5h3.5l-4.7,6.8l4.9,7.2h-3.6l-3.1-4.8l-3.2,4.8H509L513.9,61.9z"/>
		<path class="st4" d="M530.1,62L530.1,62c0-4,3.1-7.3,7.3-7.3c2.5,0,4,0.7,5.5,1.9L541,59c-1.1-0.9-2-1.4-3.7-1.4c-2.2,0-4,2-4,4.4
			v0c0,2.6,1.8,4.4,4.2,4.4c1.1,0,2.1-0.3,2.9-0.8v-2h-3.1v-2.7h6.1V67c-1.4,1.2-3.4,2.2-6,2.2C533.1,69.2,530.1,66.2,530.1,62z"/>
		<path class="st4" d="M546,58.3h3v2.2c0.6-1.5,1.6-2.4,3.4-2.4v3.2h-0.2c-2,0-3.3,1.2-3.3,3.8v4h-3V58.3z"/>
		<path class="st4" d="M553.9,63.7L553.9,63.7c0-3.1,2.5-5.6,5.8-5.6c3.3,0,5.8,2.5,5.8,5.5v0c0,3.1-2.5,5.6-5.8,5.6
			C556.3,69.2,553.9,66.8,553.9,63.7z M562.5,63.7L562.5,63.7c0-1.6-1.1-3-2.8-3c-1.7,0-2.8,1.3-2.8,2.9v0c0,1.6,1.1,3,2.8,3
			C561.4,66.6,562.5,65.3,562.5,63.7z"/>
		<path class="st4" d="M567.6,65.2v-6.9h3v6c0,1.4,0.7,2.2,1.8,2.2s1.9-0.7,1.9-2.2v-6h3V69h-3v-1.5c-0.7,0.9-1.6,1.7-3.1,1.7
			C568.9,69.2,567.6,67.7,567.6,65.2z"/>
		<path class="st4" d="M580.1,58.3h3v1.5c0.7-1,1.8-1.7,3.3-1.7c2.5,0,4.9,2,4.9,5.5v0c0,3.6-2.3,5.5-4.9,5.5
			c-1.6,0-2.6-0.7-3.3-1.6v4.6h-3V58.3z M588.4,63.7L588.4,63.7c0-1.8-1.2-3-2.6-3c-1.4,0-2.6,1.2-2.6,3v0c0,1.8,1.2,3,2.6,3
			C587.2,66.6,588.4,65.5,588.4,63.7z"/>
	</g>
</g>
<g id="line">
	<rect id="_x31__2_" x="93" y="140" class="st5" width="847" height="1"/>
	<rect id="_x32__2_" x="340" y="300" class="st5" width="240" height="1"/>
	<rect id="_x33__2_" x="519.5" y="124" class="st5" width="1" height="16"/>
	<rect id="_x34__2_" x="92.5" y="140" class="st5" width="1" height="16"/>
	<rect id="_x35__2_" x="459.5" y="140" class="st5" width="1" height="16"/>
	<rect id="_x36__2_" x="698.5" y="140" class="st5" width="1" height="16"/>
	<rect id="_x37__2_" x="939.5" y="140" class="st5" width="1" height="16"/>
	<rect id="_x38__1_" x="92.5" y="284" class="st5" width="1" height="32"/>
	<rect id="_x39__1_" x="459.5" y="284" class="st5" width="1" height="16"/>
	<rect id="_x31_0_1_" x="339.5" y="300" class="st5" width="1" height="16"/>
	<rect id="_x31_1" x="579.5" y="300" class="st5" width="1" height="16"/>
</g>
</svg>
