<?xml version="1.0" encoding="utf-8"?>
<!-- Generator: Adobe Illustrator 16.0.0, SVG Export Plug-In . SVG Version: 6.00 Build 0)  -->
<!DOCTYPE svg PUBLIC "-//W3C//DTD SVG 1.1//EN" "http://www.w3.org/Graphics/SVG/1.1/DTD/svg11.dtd">
<svg version="1.1" id="圖層_1" xmlns="http://www.w3.org/2000/svg" xmlns:xlink="http://www.w3.org/1999/xlink" x="0px" y="0px"
	 width="38px" height="56px" viewBox="0 0 38 56" enable-background="new 0 0 38 56" xml:space="preserve">
<path fill="#727272" d="M29.825,32.68c0,0,8.175,2.854,8.175,9.245C38,51.13,29.463,56,29.463,56s2.255-6.581-0.732-8.979
	c-1.854-1.488-3.188-1.473-3.188-1.473s0.723-1.57,2.216-5.527C29.258,36.046,29.825,32.68,29.825,32.68z"/>
<path fill="#424242" d="M29.825,32.68c0,0,0.833,0.291,1.968,0.896c-0.043,3.26-2.209,10.01-4.111,12.72
	c-1.287-0.754-2.141-0.743-2.141-0.743s0.723-1.57,2.216-5.527C29.258,36.046,29.825,32.68,29.825,32.68z"/>
<path fill="#727272" d="M8.174,32.68c0,0-8.175,2.854-8.175,9.245C-0.001,51.13,8.536,56,8.536,56s-2.255-6.581,0.733-8.979
	c1.853-1.488,3.188-1.473,3.188-1.473s-0.722-1.57-2.216-5.527C8.741,36.046,8.174,32.68,8.174,32.68z"/>
<path fill="#424242" d="M8.174,32.68c0,0-0.833,0.291-1.968,0.896c0.043,3.26,2.209,10.01,4.112,12.72
	c1.287-0.754,2.14-0.743,2.14-0.743s-0.722-1.57-2.216-5.527C8.741,36.046,8.174,32.68,8.174,32.68z"/>
<path id="b" fill="#E8E8E8" d="M30.718,24.729C30.718,37.746,23.934,49,23.934,49h-9.868c0,0-6.784-11.332-6.784-24.271
	C7.282,8.574,19,0,19,0S30.718,8.574,30.718,24.729z"/>
<path id="b_1_" fill="#C1C1C1" d="M30.718,24.729C30.718,37.746,23.934,49,23.934,49H19V0C19,0,30.718,8.574,30.718,24.729z"/>
<g id="e">
	<polygon fill="#424242" points="22.75,52 15.25,52 14,49 24,49 	"/>
</g>
<ellipse fill="#FFFFFF" stroke="#707070" stroke-miterlimit="10" cx="19" cy="14.608" rx="4.29" ry="4.261"/>
<ellipse fill="#FFFFFF" cx="19" cy="24.348" rx="3.064" ry="3.043"/>
<path fill="#C9CACA" d="M22.064,24.348c0,1.681-1.373,3.043-3.064,3.043c3.064-1.363,3.064-5.1,0-6.087
	C20.691,21.304,22.064,22.666,22.064,24.348z"/>
<g id="k">
	<rect x="17.161" y="37.13" fill="#231815" width="1.226" height="3.653"/>
	<rect x="19.613" y="37.13" fill="#231815" width="1.226" height="1.22"/>
	<rect x="19.613" y="39.564" fill="#231815" width="1.226" height="1.219"/>
	<rect x="18.387" y="38.35" fill="#231815" width="1.226" height="1.217"/>
</g>
</svg>
