<?xml version="1.0" encoding="utf-8"?>
<!-- Generator: Adobe Illustrator 20.0.0, SVG Export Plug-In . SVG Version: 6.00 Build 0)  -->
<svg version="1.1" id="圖層_1" xmlns="http://www.w3.org/2000/svg" xmlns:xlink="http://www.w3.org/1999/xlink" x="0px" y="0px" width="30px" height="30px"
	 viewBox="0 0 30 30" style="enable-background:new 0 0 30 30;" xml:space="preserve">
<g id="g">
	<path d="M15,3.5c3.8,0,4.2,0,5.7,0.1c1.4,0.1,2.2,0.3,2.6,0.4c0.6,0.2,1.1,0.5,1.6,1.1c0.5,0.5,0.8,1,1.1,1.6
		c0.2,0.5,0.4,1.2,0.4,2.6c0.1,1.5,0.1,1.9,0.1,5.7s0,4.2-0.1,5.7c-0.1,1.4-0.3,2.2-0.4,2.6c-0.2,0.6-0.5,1.1-1.1,1.6
		c-0.5,0.5-1,0.8-1.6,1.1c-0.5,0.2-1.2,0.4-2.6,0.4c-1.5,0.1-1.9,0.1-5.7,0.1s-4.2,0-5.7-0.1c-1.4-0.1-2.2-0.3-2.6-0.4
		c-0.6-0.2-1.1-0.5-1.6-1.1s-0.8-1-1.1-1.6c-0.2-0.5-0.4-1.2-0.4-2.6c-0.1-1.5-0.1-1.9-0.1-5.7s0-4.2,0.1-5.7C3.7,7.9,3.9,7.1,4,6.7
		c0.2-0.6,0.5-1.1,1.1-1.6s1-0.8,1.6-1.1c0.5-0.2,1.2-0.4,2.6-0.4C10.8,3.6,11.2,3.5,15,3.5 M15,1c-3.8,0-4.3,0-5.8,0.1
		c-1.4,0-2.5,0.3-3.3,0.6c-1,0.3-1.7,0.9-2.5,1.6S2.1,4.9,1.8,5.8C1.4,6.7,1.1,7.8,1.1,9.2C1,10.7,1,11.2,1,15s0,4.3,0.1,5.8
		c0.1,1.5,0.3,2.5,0.6,3.4c0.3,1,0.9,1.7,1.6,2.5c0.8,0.8,1.5,1.3,2.5,1.6c0.9,0.3,1.9,0.5,3.4,0.6c1.4,0,1.9,0,5.7,0s4.3,0,5.8-0.1
		s2.5-0.3,3.4-0.6c1-0.3,1.7-0.9,2.5-1.6c0.8-0.8,1.3-1.5,1.6-2.5c0.3-0.9,0.5-1.9,0.6-3.4c0-1.4,0-1.9,0-5.7s0-4.3-0.1-5.8
		s-0.3-2.5-0.6-3.4c-0.3-1-0.9-1.7-1.6-2.5S25.1,2,24.2,1.6c-0.9-0.3-1.9-0.5-3.4-0.6C19.3,1,18.8,1,15,1L15,1z"/>
	<path d="M15,7.8c-4,0-7.2,3.2-7.2,7.2s3.2,7.2,7.2,7.2s7.2-3.2,7.2-7.2S19,7.8,15,7.8z M15,19.6c-2.6,0-4.6-2-4.6-4.6
		s2-4.6,4.6-4.6s4.6,2,4.6,4.6S17.6,19.6,15,19.6z"/>
	<circle cx="22.4" cy="7.6" r="1.7"/>
</g>
</svg>
