<?xml version="1.0" encoding="utf-8"?>
<!-- Generator: Adobe Illustrator 16.0.0, SVG Export Plug-In . SVG Version: 6.00 Build 0)  -->
<!DOCTYPE svg PUBLIC "-//W3C//DTD SVG 1.1//EN" "http://www.w3.org/Graphics/SVG/1.1/DTD/svg11.dtd">
<svg version="1.1" id="twitter" xmlns="http://www.w3.org/2000/svg" xmlns:xlink="http://www.w3.org/1999/xlink" x="0px" y="0px"
	 width="30px" height="30px" viewBox="0 0 30 30" enable-background="new 0 0 30 30" xml:space="preserve">
<path d="M28.116,7.118c-0.97,0.418-2.025,0.72-3.112,0.837c1.121-0.669,1.975-1.724,2.376-2.979
	c-1.036,0.62-2.208,1.072-3.431,1.306c-0.987-1.055-2.394-1.707-3.951-1.707c-2.996,0-5.406,2.427-5.406,5.406
	c0,0.418,0.049,0.838,0.134,1.239C10.24,10.984,6.239,8.842,3.578,5.562C3.109,6.365,2.841,7.286,2.841,8.29
	c0,1.875,0.954,3.533,2.41,4.503c-0.887-0.034-1.724-0.284-2.444-0.686c0,0.017,0,0.049,0,0.066c0,2.628,1.858,4.804,4.335,5.307
	c-0.452,0.117-0.937,0.184-1.423,0.184c-0.352,0-0.686-0.033-1.021-0.084c0.686,2.143,2.679,3.699,5.055,3.75
	c-1.858,1.456-4.185,2.31-6.713,2.31c-0.451,0-0.871-0.017-1.306-0.067C4.13,25.113,6.976,26,10.039,26
	c9.943,0,15.383-8.235,15.383-15.383c0-0.234,0-0.469-0.017-0.703C26.46,9.144,27.38,8.19,28.116,7.118L28.116,7.118z"/>
</svg>
