<?xml version="1.0" encoding="utf-8"?>
<!-- Generator: Adobe Illustrator 16.0.0, SVG Export Plug-In . SVG Version: 6.00 Build 0)  -->
<!DOCTYPE svg PUBLIC "-//W3C//DTD SVG 1.1//EN" "http://www.w3.org/Graphics/SVG/1.1/DTD/svg11.dtd">
<svg version="1.1" id="圖層_1" xmlns="http://www.w3.org/2000/svg" xmlns:xlink="http://www.w3.org/1999/xlink" x="0px" y="0px"
	 width="30px" height="30px" viewBox="0 0 30 30" enable-background="new 0 0 30 30" xml:space="preserve">
<path d="M21.427,15.288c0,0.368-0.185,0.719-0.504,0.903l-8.569,5.355c-0.168,0.117-0.368,0.168-0.57,0.168
	c-0.183,0-0.351-0.051-0.519-0.134c-0.334-0.185-0.553-0.553-0.553-0.938V9.931c0-0.385,0.219-0.752,0.553-0.938
	c0.335-0.185,0.752-0.185,1.088,0.034l8.569,5.355C21.242,14.567,21.427,14.918,21.427,15.288L21.427,15.288z M29.996,15.288
	c0-2.394,0-4.938-0.519-7.266c-0.368-1.64-1.675-2.845-3.248-3.03c-3.716-0.418-7.481-0.418-11.231-0.418s-7.515,0-11.231,0.418
	c-1.573,0.185-2.863,1.39-3.231,3.03C0,10.35,0,12.894,0,15.288c0,2.392,0,4.937,0.519,7.265c0.368,1.639,1.675,2.845,3.248,3.029
	C7.483,26,11.248,26,14.998,26s7.516,0,11.231-0.418c1.573-0.185,2.88-1.391,3.231-3.029C29.996,20.225,29.996,17.68,29.996,15.288
	L29.996,15.288z"/>
</svg>
