<?xml version="1.0" encoding="utf-8"?>
<!-- Generator: Adobe Illustrator 16.0.0, SVG Export Plug-In . SVG Version: 6.00 Build 0)  -->
<!DOCTYPE svg PUBLIC "-//W3C//DTD SVG 1.1//EN" "http://www.w3.org/Graphics/SVG/1.1/DTD/svg11.dtd">
<svg version="1.1" id="svg-play" xmlns="http://www.w3.org/2000/svg" xmlns:xlink="http://www.w3.org/1999/xlink" x="0px" y="0px"
	 width="32px" height="32px" viewBox="0 0 32 32" enable-background="new 0 0 32 32" xml:space="preserve">
<path id="line-play" fill-rule="evenodd" clip-rule="evenodd" fill="#E60012" d="M10.056,25.754
	c0.651,0.348,1.439,0.311,2.052-0.099l12.001-7.991c0.556-0.369,0.89-0.994,0.89-1.661c0-0.668-0.334-1.292-0.89-1.663L12.108,6.351
	c-0.613-0.408-1.401-0.446-2.052-0.1C9.407,6.599,9,7.275,9,8.012v2.996v3.109v3.985v1.92v3.97C9,24.729,9.407,25.405,10.056,25.754
	L10.056,25.754z M11,20.022v-9.015l0,0v-1.002c0-0.603,0-1.658,0-1.658s0.907-0.046,1.41,0.286l9.389,6.193
	c0.457,0.303,0.732,0.688,0.732,1.234c0,0.547-0.275,1.058-0.732,1.361l-9.389,5.784C11.907,23.543,11,23.559,11,23.559
	s0-0.93,0-1.533V20.022L11,20.022L11,20.022z"/>
</svg>
