<?xml version="1.0" encoding="utf-8"?>
<!-- Generator: Adobe Illustrator 16.0.0, SVG Export Plug-In . SVG Version: 6.00 Build 0)  -->
<!DOCTYPE svg PUBLIC "-//W3C//DTD SVG 1.1//EN" "http://www.w3.org/Graphics/SVG/1.1/DTD/svg11.dtd">
<svg version="1.1" id="svg-cloud" xmlns="http://www.w3.org/2000/svg" xmlns:xlink="http://www.w3.org/1999/xlink" x="0px" y="0px"
	 width="32px" height="32px" viewBox="0 0 32 32" enable-background="new 0 0 32 32" xml:space="preserve">
<path id="line-cloud" fill-rule="evenodd" clip-rule="evenodd" fill="#E60012" d="M19.999,26.949V27H7v-0.102
	c-2.835-0.479-5-2.928-5-5.898c0-3.314,2.686-6,5.999-6c0.017,0,0.034,0.006,0.051,0.006C8.554,9.397,13.261,5,19,5
	c6.074,0,10.999,4.924,10.999,11C29.999,21.737,25.605,26.443,19.999,26.949L19.999,26.949z M19,7c-0.305,0-0.604,0.016-0.9,0.045
	c-0.104,0.011-0.206,0.031-0.311,0.044c-0.188,0.026-0.379,0.049-0.563,0.086c-0.126,0.026-0.25,0.062-0.374,0.092
	c-0.157,0.039-0.314,0.074-0.469,0.12c-0.137,0.042-0.269,0.094-0.404,0.142c-0.134,0.049-0.27,0.094-0.402,0.148
	c-0.143,0.058-0.283,0.127-0.423,0.194c-0.114,0.055-0.229,0.106-0.342,0.165c-0.149,0.079-0.292,0.167-0.436,0.252
	c-0.096,0.057-0.192,0.112-0.285,0.172c-0.152,0.1-0.297,0.207-0.442,0.314c-0.077,0.057-0.156,0.113-0.231,0.173
	c-0.152,0.12-0.297,0.248-0.442,0.378c-0.06,0.054-0.122,0.108-0.18,0.163c-0.149,0.143-0.292,0.292-0.433,0.447
	c-0.044,0.049-0.091,0.097-0.134,0.147c-0.146,0.165-0.283,0.337-0.416,0.513c-0.032,0.043-0.065,0.084-0.096,0.128
	c-0.137,0.188-0.265,0.382-0.388,0.582c-0.02,0.034-0.042,0.068-0.062,0.104c-0.126,0.209-0.242,0.425-0.35,0.646
	c-0.012,0.026-0.026,0.052-0.039,0.079c-0.109,0.23-0.211,0.466-0.3,0.708c-0.008,0.019-0.014,0.035-0.02,0.054
	c-0.093,0.25-0.174,0.505-0.244,0.765c-0.003,0.009-0.006,0.02-0.007,0.031c-0.071,0.268-0.131,0.539-0.177,0.814
	c0,0.004-0.001,0.009-0.001,0.014C10.052,15.002,10.015,15.495,10,16c-0.014,0.479,0,0.321,0,1.001c-0.705,0-1.204,0-2,0
	c-2.209,0-4,1.79-4,3.999s1.79,3.999,4,3.999h4.442h0.245H19h0.999V24.94c0.804-0.087,1.572-0.286,2.297-0.572
	c0.042-0.016,0.083-0.027,0.123-0.045c0.182-0.075,0.357-0.161,0.533-0.248c0.077-0.036,0.157-0.07,0.232-0.11
	c0.157-0.083,0.308-0.174,0.459-0.267c0.089-0.054,0.18-0.104,0.266-0.161c0.139-0.091,0.272-0.188,0.405-0.286
	c0.092-0.068,0.187-0.135,0.275-0.205c0.123-0.099,0.241-0.202,0.36-0.305c0.091-0.082,0.183-0.163,0.271-0.248
	c0.109-0.104,0.214-0.213,0.317-0.321c0.089-0.095,0.177-0.189,0.262-0.288c0.096-0.109,0.188-0.222,0.277-0.336
	c0.084-0.106,0.164-0.216,0.244-0.326c0.082-0.114,0.16-0.229,0.237-0.348c0.077-0.119,0.149-0.242,0.222-0.365
	c0.067-0.117,0.136-0.234,0.198-0.355c0.069-0.131,0.133-0.267,0.194-0.403c0.056-0.118,0.111-0.237,0.162-0.358
	c0.058-0.146,0.108-0.294,0.161-0.443c0.042-0.12,0.085-0.237,0.122-0.357c0.048-0.162,0.086-0.328,0.126-0.492
	c0.027-0.114,0.059-0.229,0.081-0.344c0.037-0.188,0.063-0.379,0.088-0.571c0.013-0.099,0.032-0.193,0.042-0.294
	C27.984,16.598,28,16.3,28,16C28,11.029,23.971,7,19,7L19,7z"/>
</svg>
