<?xml version="1.0" encoding="utf-8"?>
<!-- Generator: Adobe Illustrator 16.0.0, SVG Export Plug-In . SVG Version: 6.00 Build 0)  -->
<!DOCTYPE svg PUBLIC "-//W3C//DTD SVG 1.1//EN" "http://www.w3.org/Graphics/SVG/1.1/DTD/svg11.dtd">
<svg version="1.1" id="svg-bag" xmlns="http://www.w3.org/2000/svg" xmlns:xlink="http://www.w3.org/1999/xlink" x="0px" y="0px"
	 width="32px" height="32px" viewBox="0 0 32 32" enable-background="new 0 0 32 32" xml:space="preserve">
<path id="line-bag" fill-rule="evenodd" clip-rule="evenodd" fill="#E60012" d="M28,28c0,1.104-0.895,1.999-2,1.999H6
	c-1.105,0-2-0.895-2-1.999l-2-19c0-1.105,0.894-2.001,2-2.001C4.858,6.142,6.896,3,8,3h16c1.104,0,3.245,3.245,4,3.999
	c1.104,0,1.999,0.896,1.999,2.001L28,28L28,28z M22.833,5H9.167C8.292,5,6.679,6.357,6,6.999h3.958h11.083H26
	C25.402,6.434,23.708,5,22.833,5L22.833,5z M4,9l2,19h20l2-19H4L4,9z M16,22.001c-3.314,0-6-2.687-6-6.001v-2H12v2
	c0,2.209,1.791,3.999,4,3.999s3.999-1.79,3.999-3.999v-2h2.002v2C22.001,19.314,19.314,22.001,16,22.001L16,22.001z"/>
</svg>
