<?xml version="1.0" encoding="utf-8"?>
<!-- Generator: Adobe Illustrator 16.0.0, SVG Export Plug-In . SVG Version: 6.00 Build 0)  -->
<!DOCTYPE svg PUBLIC "-//W3C//DTD SVG 1.1//EN" "http://www.w3.org/Graphics/SVG/1.1/DTD/svg11.dtd">
<svg version="1.1" id="svg-music" xmlns="http://www.w3.org/2000/svg" xmlns:xlink="http://www.w3.org/1999/xlink" x="0px" y="0px"
	 width="32px" height="32px" viewBox="0 0 32 32" enable-background="new 0 0 32 32" xml:space="preserve">
<path id="line-music" fill-rule="evenodd" clip-rule="evenodd" fill="#E60012" d="M28.898,22.001C28.436,24.282,26.419,26,24,26
	c-2.762,0-5-2.238-5-5s2.238-5,5-5c1.13,0,2.161,0.39,3,1.022V10L13,14v12h-0.1c-0.463,2.283-2.481,3.999-4.899,3.999
	c-2.762,0-5-2.238-5-5c0-2.76,2.238-5,5-5c1.131,0,2.163,0.39,3,1.024V12V10V8c0-1.104,0.896-2,2-2l14-4.001
	c1.104,0,2,0.896,2,2.001v2v2v14.001H28.898L28.898,22.001z M8,22.001c-1.657,0-3,1.342-3,2.998C5,26.657,6.343,28,8,28
	c1.656,0,3-1.343,3-3.001C11,23.343,9.656,22.001,8,22.001L8,22.001z M27,4L13,8v4l14-4V4L27,4z M24,18c-1.656,0-3,1.344-3,3
	s1.344,3,3,3s3-1.344,3-3S25.656,18,24,18L24,18z"/>
</svg>
